<?xml version="1.0" encoding="UTF-8" standalone="no"?>
<!-- Created with Inkscape (http://www.inkscape.org/) -->

<svg
   xmlns:dc="http://purl.org/dc/elements/1.1/"
   xmlns:cc="http://creativecommons.org/ns#"
   xmlns:rdf="http://www.w3.org/1999/02/22-rdf-syntax-ns#"
   xmlns:svg="http://www.w3.org/2000/svg"
   xmlns="http://www.w3.org/2000/svg"
   xmlns:sodipodi="http://sodipodi.sourceforge.net/DTD/sodipodi-0.dtd"
   xmlns:inkscape="http://www.inkscape.org/namespaces/inkscape"
   width="11in"
   height="8.5in"
   viewBox="0 0 279.4 215.9"
   version="1.1"
   id="svg8"
   inkscape:version="0.92.4 (5da689c313, 2019-01-14)"
   sodipodi:docname="drawing.svg">
  <defs
     id="defs2">
    <radialGradient
       fx="300.162"
       fy="470.125"
       cx="300.162"
       cy="470.125"
       r="0"
       gradientUnits="userSpaceOnUse"
       gradientTransform="matrix(10,0,0,10,-720,-2420)"
       id="b">
      <stop
         id="stop823"
         stop-color="#e9e9e9"
         offset="0" />
      <stop
         id="stop825"
         stop-color="#fff"
         offset=".563" />
      <stop
         id="stop827"
         stop-color="#fff"
         offset="1" />
    </radialGradient>
    <clipPath
       clipPathUnits="userSpaceOnUse"
       id="a">
      <path
         id="path830"
         clip-rule="evenodd"
         d="M2.86 4560h4557.52V2.488H2.86z" />
    </clipPath>
  </defs>
  <sodipodi:namedview
     id="base"
     pagecolor="#ffffff"
     bordercolor="#666666"
     borderopacity="1.0"
     inkscape:pageopacity="0.0"
     inkscape:pageshadow="2"
     inkscape:zoom="0.7"
     inkscape:cx="410.91815"
     inkscape:cy="331.67594"
     inkscape:document-units="mm"
     inkscape:current-layer="layer1"
     showgrid="false"
     height="148mm"
     inkscape:snap-page="true"
     inkscape:snap-bbox="true"
     inkscape:snap-bbox-midpoints="true"
     units="in"
     inkscape:window-width="1920"
     inkscape:window-height="1017"
     inkscape:window-x="-8"
     inkscape:window-y="-8"
     inkscape:window-maximized="1" />
  <metadata
     id="metadata5">
    <rdf:RDF>
      <cc:Work
         rdf:about="">
        <dc:format>image/svg+xml</dc:format>
        <dc:type
           rdf:resource="http://purl.org/dc/dcmitype/StillImage" />
        <dc:title></dc:title>
      </cc:Work>
    </rdf:RDF>
  </metadata>
  <g
     inkscape:label="Layer 1"
     inkscape:groupmode="layer"
     id="layer1"
     transform="translate(0,-81.1)">
    <g
       aria-label="We Don't Care 
About The Flywheel"
       style="font-style:italic;font-variant:normal;font-weight:bold;font-stretch:normal;font-size:25.07399178px;line-height:1.25;font-family:Georgia;-inkscape-font-specification:'Georgia, Bold Italic';font-variant-ligatures:normal;font-variant-caps:normal;font-variant-numeric:normal;font-feature-settings:normal;text-align:center;letter-spacing:0px;word-spacing:0px;writing-mode:lr-tb;text-anchor:middle;fill:#231f20;fill-opacity:1;stroke:none;stroke-width:0.62684977"
       id="text817">
      <path
         d="m 77.786341,162.6476 -0.220376,0.89375 q -0.404025,0.0367 -0.808049,0.18365 -0.404024,0.14692 -0.783562,0.33056 -0.587672,0.29384 -0.918237,0.66114 -0.330566,0.35505 -0.685617,0.95496 -1.212073,2.04461 -3.52603,6.04812 -2.313958,4.00352 -4.897264,8.49676 h -2.546578 l -1.567124,-12.83084 -7.05206,12.83084 h -2.448632 q -0.514213,-4.59119 -0.954967,-8.63143 -0.42851,-4.04024 -0.648887,-5.96242 -0.0857,-0.64889 -0.281593,-0.95497 -0.183647,-0.31832 -0.648887,-0.64889 -0.293836,-0.20813 -0.636645,-0.30607 -0.342808,-0.11019 -0.795805,-0.17141 l 0.208134,-0.89375 h 9.084424 l -0.220377,0.89375 q -0.881507,0.0979 -1.371234,0.20814 -0.489726,0.11018 -0.734589,0.24486 -0.220377,0.12243 -0.257106,0.28159 -0.03673,0.14692 -0.03673,0.30608 0,0.24486 0.02449,0.57543 0.02449,0.31832 0.06122,0.69786 0.09795,1.15086 0.355052,3.64846 0.269349,2.48536 0.599915,5.80326 l 6.843926,-12.65943 h 2.607793 l 1.579368,13.05121 q 1.456936,-2.63228 2.705738,-4.90951 1.248803,-2.28947 1.983392,-3.70968 0.452997,-0.86926 0.783562,-1.61609 0.342809,-0.74683 0.342809,-0.96721 0,-0.37954 -0.648888,-0.6244 -0.636644,-0.24487 -1.873203,-0.33057 l 0.220377,-0.89375 z"
         style="font-style:italic;font-variant:normal;font-weight:bold;font-stretch:normal;font-size:25.07399178px;font-family:Georgia;-inkscape-font-specification:'Georgia, Bold Italic';font-variant-ligatures:normal;font-variant-caps:normal;font-variant-numeric:normal;font-feature-settings:normal;text-align:center;writing-mode:lr-tb;text-anchor:middle;fill:#231f20;fill-opacity:1;stroke-width:0.62684977"
         id="path879" />
      <path
         d="m 81.520505,180.42467 q -1.469179,0 -2.583306,-0.40402 -1.101885,-0.39179 -1.824231,-1.10189 -0.710103,-0.7101 -1.065155,-1.65283 -0.355052,-0.94272 -0.355052,-2.08133 0,-1.4447 0.538699,-2.80369 0.538699,-1.35899 1.603854,-2.44863 1.003939,-1.04067 2.546578,-1.68955 1.542638,-0.64889 3.403598,-0.64889 2.191526,0 3.33014,0.69786 1.150857,0.69786 1.150857,2.09358 0,1.3345 -0.991696,2.30171 -0.991696,0.95497 -2.693496,1.42021 -1.346747,0.40402 -2.301714,0.57543 -0.942723,0.1714 -2.313957,0.31832 0.02449,0.5387 0.146918,1.21207 0.122432,0.67338 0.367295,1.15086 0.293836,0.55094 0.832535,0.88151 0.538699,0.31832 1.371234,0.31832 1.444693,0 2.448632,-0.55094 1.016182,-0.56319 1.934419,-1.77526 l 0.893751,0.74683 q -1.101885,1.56713 -2.82817,2.50985 -1.714043,0.93048 -3.611733,0.93048 z m 2.766955,-9.69658 q 0,-1.04067 -0.379538,-1.59161 -0.379538,-0.56319 -1.052912,-0.56319 -0.942723,0 -1.787501,1.54264 -0.832535,1.53039 -1.065155,3.88108 0.722346,-0.0857 1.432449,-0.22038 0.710104,-0.13467 1.126371,-0.31832 0.918237,-0.40402 1.322261,-1.04067 0.404025,-0.63664 0.404025,-1.68955 z"
         style="font-style:italic;font-variant:normal;font-weight:bold;font-stretch:normal;font-size:25.07399178px;font-family:Georgia;-inkscape-font-specification:'Georgia, Bold Italic';font-variant-ligatures:normal;font-variant-caps:normal;font-variant-numeric:normal;font-feature-settings:normal;text-align:center;writing-mode:lr-tb;text-anchor:middle;fill:#231f20;fill-opacity:1;stroke-width:0.62684977"
         id="path881" />
      <path
         d="m 112.88748,164.05556 q 1.35899,0.84478 2.13031,2.21602 0.77132,1.35899 0.77132,3.21995 0,2.3262 -0.91824,4.29735 -0.91823,1.97115 -2.59555,3.35462 -1.66507,1.39572 -3.86883,2.14256 -2.20377,0.73459 -4.86054,0.73459 h -9.059937 l 0.208134,-0.89376 q 0.306079,-0.0122 0.905993,-0.0735 0.612158,-0.0735 0.905994,-0.17141 0.477483,-0.15916 0.722347,-0.48973 0.257106,-0.33056 0.355051,-0.75907 l 2.803688,-12.14522 q 0.0612,-0.2571 0.0857,-0.42851 0.0245,-0.1714 0.0245,-0.2571 0,-0.51422 -0.526452,-0.79581 -0.514212,-0.29383 -1.689556,-0.46524 l 0.208134,-0.89375 h 8.900774 q 1.37124,0 2.81593,0.33057 1.45694,0.31832 2.68125,1.07739 z m -3.62397,11.69222 q 0.86926,-1.48142 1.28553,-3.21995 0.41627,-1.75077 0.41627,-3.64846 0,-2.37517 -1.0774,-3.77089 -1.0774,-1.40797 -3.24444,-1.40797 -0.42851,0 -0.85702,0.0245 -0.41627,0.0122 -0.66113,0.0245 l -2.99958,13.03896 q -0.049,0.18365 -0.0857,0.453 -0.0367,0.2571 -0.0367,0.36729 0,0.77132 0.56319,1.06516 0.57543,0.29383 1.60385,0.29383 1.66507,0 2.9506,-0.8815 1.29778,-0.88151 2.14256,-2.33845 z"
         style="font-style:italic;font-variant:normal;font-weight:bold;font-stretch:normal;font-size:25.07399178px;font-family:Georgia;-inkscape-font-specification:'Georgia, Bold Italic';font-variant-ligatures:normal;font-variant-caps:normal;font-variant-numeric:normal;font-feature-settings:normal;text-align:center;writing-mode:lr-tb;text-anchor:middle;fill:#231f20;fill-opacity:1;stroke-width:0.62684977"
         id="path883" />
      <path
         d="m 131.19101,172.68699 q 0,1.54264 -0.58767,2.9506 -0.58767,1.40797 -1.66507,2.44864 -1.1631,1.11412 -2.73023,1.72628 -1.55488,0.59992 -3.50154,0.59992 -2.60779,0 -4.21165,-1.38348 -1.60385,-1.39572 -1.60385,-3.79538 0,-1.62834 0.59991,-3.02406 0.61216,-1.39572 1.7018,-2.43639 1.0774,-1.01618 2.64452,-1.60385 1.56713,-0.59992 3.39136,-0.59992 2.76695,0 4.35857,1.35899 1.60385,1.34675 1.60385,3.75865 z m -4.30959,-1.38347 q 0,-1.43245 -0.48973,-2.10583 -0.47748,-0.67337 -1.39572,-0.67337 -0.94272,0 -1.72629,0.75907 -0.78356,0.74684 -1.27328,2.20377 -0.42851,1.21208 -0.61216,2.63228 -0.18365,1.40797 -0.18365,2.52209 0,1.48143 0.48973,2.1548 0.48972,0.66113 1.4202,0.66113 1.00394,0 1.73853,-0.82029 0.73459,-0.82029 1.1631,-2.02012 0.42851,-1.17535 0.64889,-2.59555 0.22038,-1.43245 0.22038,-2.71798 z"
         style="font-style:italic;font-variant:normal;font-weight:bold;font-stretch:normal;font-size:25.07399178px;font-family:Georgia;-inkscape-font-specification:'Georgia, Bold Italic';font-variant-ligatures:normal;font-variant-caps:normal;font-variant-numeric:normal;font-feature-settings:normal;text-align:center;writing-mode:lr-tb;text-anchor:middle;fill:#231f20;fill-opacity:1;stroke-width:0.62684977"
         id="path885" />
      <path
         d="m 148.98032,178.14744 -0.26935,1.10189 q -1.21207,0.47748 -1.93442,0.73459 -0.72235,0.24486 -1.67731,0.24486 -1.45694,0 -2.26499,-0.72235 -0.80804,-0.73459 -0.80804,-1.81199 0,-0.29383 0.0245,-0.74683 0.0367,-0.46524 0.20814,-1.15086 l 0.8815,-3.25668 q 0.13468,-0.52645 0.19589,-0.94272 0.0735,-0.42851 0.0735,-0.69786 0,-0.58767 -0.28159,-0.91824 -0.28159,-0.33056 -0.95497,-0.33056 -0.41626,0 -1.18758,0.33056 -0.77132,0.31833 -1.72629,1.19983 l -2.02012,8.83957 h -4.05249 l 1.73853,-7.52955 q 0.0735,-0.34281 0.18365,-0.89375 0.12243,-0.55094 0.12243,-0.91824 0,-0.69786 -0.29383,-0.95496 -0.2816,-0.26935 -1.04067,-0.26935 -0.39178,0 -0.80805,0.12243 -0.40403,0.12243 -0.69786,0.23262 l 0.26935,-1.10188 q 0.99169,-0.40403 1.89769,-0.68562 0.90599,-0.29384 1.71404,-0.29384 1.44469,0 2.1548,0.57543 0.72234,0.56319 0.95496,1.59161 h 0.0857 q 1.19983,-1.08964 2.47312,-1.68955 1.28553,-0.61216 2.73023,-0.61216 1.35899,0 2.11806,0.74683 0.77132,0.74683 0.77132,1.81199 0,0.28159 -0.049,0.7958 -0.0367,0.50197 -0.19589,1.0774 l -0.93048,3.44033 q -0.12243,0.42851 -0.22038,0.97945 -0.0979,0.55094 -0.0979,0.83254 0,0.7101 0.30608,0.96721 0.31832,0.2571 1.10188,0.2571 0.3673,0 0.83254,-0.12243 0.46524,-0.13467 0.67337,-0.23262 z"
         style="font-style:italic;font-variant:normal;font-weight:bold;font-stretch:normal;font-size:25.07399178px;font-family:Georgia;-inkscape-font-specification:'Georgia, Bold Italic';font-variant-ligatures:normal;font-variant-caps:normal;font-variant-numeric:normal;font-feature-settings:normal;text-align:center;writing-mode:lr-tb;text-anchor:middle;fill:#231f20;fill-opacity:1;stroke-width:0.62684977"
         id="path887" />
      <path
         d="m 156.39967,165.09623 q -0.48973,0.94273 -1.12637,2.1548 -0.63664,1.21207 -1.27329,2.69349 h -0.82029 q 0,-2.26498 -0.0612,-3.6607 -0.0612,-1.39572 -0.0612,-2.35069 0,-1.08964 0.67337,-1.86096 0.68562,-0.77132 1.76302,-0.77132 0.80805,0 1.27329,0.44076 0.47748,0.42851 0.47748,1.05291 0,0.36729 -0.20813,0.90599 -0.19589,0.5387 -0.63665,1.39572 z"
         style="font-style:italic;font-variant:normal;font-weight:bold;font-stretch:normal;font-size:25.07399178px;font-family:Georgia;-inkscape-font-specification:'Georgia, Bold Italic';font-variant-ligatures:normal;font-variant-caps:normal;font-variant-numeric:normal;font-feature-settings:normal;text-align:center;writing-mode:lr-tb;text-anchor:middle;fill:#231f20;fill-opacity:1;stroke-width:0.62684977"
         id="path889" />
      <path
         d="m 161.07656,180.33897 q -1.46918,0 -2.35069,-0.71011 -0.88151,-0.72234 -0.88151,-1.82423 0,-0.45299 0.0612,-0.85702 0.0612,-0.40402 0.19589,-1.04067 l 1.51815,-6.51336 h -2.2405 l 0.29384,-1.26104 h 2.28947 l 0.88151,-3.70968 h 3.96678 l -0.85702,3.70968 h 3.3179 l -0.29384,1.26104 h -3.30565 l -1.49367,6.51336 q -0.0857,0.34281 -0.1714,0.83254 -0.0735,0.48972 -0.0735,0.63664 0,0.69786 0.37954,0.96721 0.39178,0.26935 1.18758,0.26935 0.37954,0 1.04067,-0.14692 0.67338,-0.14691 0.94273,-0.24486 l -0.26935,1.10189 q -1.0774,0.47748 -2.16704,0.74683 -1.0774,0.26935 -1.97115,0.26935 z"
         style="font-style:italic;font-variant:normal;font-weight:bold;font-stretch:normal;font-size:25.07399178px;font-family:Georgia;-inkscape-font-specification:'Georgia, Bold Italic';font-variant-ligatures:normal;font-variant-caps:normal;font-variant-numeric:normal;font-feature-settings:normal;text-align:center;writing-mode:lr-tb;text-anchor:middle;fill:#231f20;fill-opacity:1;stroke-width:0.62684977"
         id="path891" />
      <path
         d="m 181.75526,180.48589 q -1.67732,0 -3.10977,-0.48973 -1.43245,-0.50197 -2.47312,-1.43245 -1.02842,-0.93048 -1.60385,-2.26499 -0.57543,-1.34674 -0.57543,-3.0363 0,-2.2405 0.82029,-4.22389 0.83254,-1.98339 2.33845,-3.53827 1.44469,-1.49367 3.52603,-2.39966 2.09358,-0.91824 4.44426,-0.91824 1.42021,0 2.87715,0.34281 1.45693,0.34281 2.17928,0.7958 l 0.91824,-0.67337 h 1.06515 l -1.35899,6.34196 h -1.0774 q -0.24486,-2.7792 -1.48142,-4.22389 -1.22432,-1.45694 -3.15873,-1.45694 -1.42021,0 -2.62004,0.84478 -1.19983,0.84478 -2.13031,2.59555 -0.75908,1.44469 -1.1631,3.35463 -0.39178,1.89769 -0.39178,3.56276 0,2.44863 1.18758,3.80762 1.18759,1.35899 3.18323,1.35899 1.75077,0 3.24443,-0.97945 1.49367,-0.97946 2.87715,-2.82817 l 0.94272,0.63664 q -0.59992,0.93048 -1.43245,1.83647 -0.83254,0.89375 -1.89769,1.55489 -1.11413,0.69786 -2.30171,1.06515 -1.17535,0.3673 -2.82817,0.3673 z"
         style="font-style:italic;font-variant:normal;font-weight:bold;font-stretch:normal;font-size:25.07399178px;font-family:Georgia;-inkscape-font-specification:'Georgia, Bold Italic';font-variant-ligatures:normal;font-variant-caps:normal;font-variant-numeric:normal;font-feature-settings:normal;text-align:center;writing-mode:lr-tb;text-anchor:middle;fill:#231f20;fill-opacity:1;stroke-width:0.62684977"
         id="path893" />
      <path
         d="m 200.15674,178.49025 h -0.098 q -0.42851,0.36729 -0.82029,0.67337 -0.37954,0.30608 -0.96721,0.61216 -0.51421,0.26935 -1.08964,0.44076 -0.56319,0.18364 -1.24881,0.18364 -2.1303,0 -3.2077,-1.2488 -1.0774,-1.26104 -1.0774,-3.44033 0,-1.67731 0.59991,-3.14649 0.59992,-1.46918 1.60386,-2.58331 1.01618,-1.10188 2.37517,-1.73852 1.35899,-0.64889 2.8649,-0.64889 1.10188,0 1.92218,0.2571 0.83253,0.25711 1.35899,0.69786 l 3.75865,-0.77131 0.1714,0.19589 -1.79974,7.52954 q -0.0979,0.37954 -0.20814,0.95497 -0.11019,0.56318 -0.11019,0.85702 0,0.69786 0.31833,0.96721 0.31832,0.2571 1.10188,0.2571 0.34281,0 0.82029,-0.13467 0.48973,-0.13468 0.68562,-0.22038 l -0.26935,1.10189 q -1.21207,0.47748 -1.94666,0.73459 -0.72235,0.24486 -1.67731,0.24486 -1.26105,0 -2.02013,-0.48973 -0.74683,-0.50197 -1.04066,-1.28553 z m 1.45693,-7.76216 q 0,-0.26935 -0.0735,-0.63665 -0.0735,-0.36729 -0.2571,-0.6244 -0.22038,-0.31832 -0.57543,-0.47748 -0.35505,-0.17141 -0.88151,-0.17141 -0.80805,0 -1.49367,0.58768 -0.67337,0.57542 -1.19983,1.54263 -0.51421,0.95497 -0.80804,2.22826 -0.29384,1.26104 -0.29384,2.58331 0,0.59991 0.0857,1.11412 0.0979,0.51422 0.30608,0.86927 0.22038,0.37954 0.58767,0.58767 0.37954,0.20813 0.94273,0.20813 0.57542,0 1.10188,-0.33056 0.5387,-0.34281 0.9917,-0.83254 z"
         style="font-style:italic;font-variant:normal;font-weight:bold;font-stretch:normal;font-size:25.07399178px;font-family:Georgia;-inkscape-font-specification:'Georgia, Bold Italic';font-variant-ligatures:normal;font-variant-caps:normal;font-variant-numeric:normal;font-feature-settings:normal;text-align:center;writing-mode:lr-tb;text-anchor:middle;fill:#231f20;fill-opacity:1;stroke-width:0.62684977"
         id="path895" />
      <path
         d="m 220.94562,170.14041 q 0,0.55095 -0.15916,1.06516 -0.15916,0.51421 -0.47749,0.88151 -0.35505,0.41626 -0.74683,0.6244 -0.39178,0.19589 -1.10188,0.19589 -0.91824,0 -1.4447,-0.453 -0.52645,-0.45299 -0.52645,-1.01618 0,-0.52646 0.14692,-0.90599 0.15916,-0.37954 0.48972,-1.15086 -0.82029,0.34281 -1.40796,0.84478 -0.58767,0.48972 -1.12637,1.12637 l -1.93442,8.66816 h -4.05249 l 1.68956,-7.52955 q 0.0735,-0.34281 0.18365,-0.89375 0.12243,-0.55094 0.12243,-0.91824 0,-0.7101 -0.28159,-0.96721 -0.26935,-0.2571 -1.05292,-0.2571 -0.39178,0 -0.80805,0.12243 -0.40402,0.12243 -0.69786,0.23262 l 0.26935,-1.10188 q 0.9917,-0.40403 1.89769,-0.68562 0.906,-0.29384 1.71405,-0.29384 1.44469,0 2.15479,0.57543 0.72235,0.56319 0.95497,1.59161 h 0.0857 q 1.21207,-1.28553 2.05685,-1.7875 0.84478,-0.51421 1.81199,-0.51421 1.04067,0 1.64058,0.66113 0.59992,0.64889 0.59992,1.88544 z"
         style="font-style:italic;font-variant:normal;font-weight:bold;font-stretch:normal;font-size:25.07399178px;font-family:Georgia;-inkscape-font-specification:'Georgia, Bold Italic';font-variant-ligatures:normal;font-variant-caps:normal;font-variant-numeric:normal;font-feature-settings:normal;text-align:center;writing-mode:lr-tb;text-anchor:middle;fill:#231f20;fill-opacity:1;stroke-width:0.62684977"
         id="path897" />
      <path
         d="m 227.45897,180.42467 q -1.46918,0 -2.58331,-0.40402 -1.10188,-0.39179 -1.82423,-1.10189 -0.7101,-0.7101 -1.06515,-1.65283 -0.35505,-0.94272 -0.35505,-2.08133 0,-1.4447 0.5387,-2.80369 0.53869,-1.35899 1.60385,-2.44863 1.00394,-1.04067 2.54658,-1.68955 1.54263,-0.64889 3.4036,-0.64889 2.19152,0 3.33013,0.69786 1.15086,0.69786 1.15086,2.09358 0,1.3345 -0.99169,2.30171 -0.9917,0.95497 -2.6935,1.42021 -1.34675,0.40402 -2.30171,0.57543 -0.94273,0.1714 -2.31396,0.31832 0.0245,0.5387 0.14692,1.21207 0.12243,0.67338 0.36729,1.15086 0.29384,0.55094 0.83254,0.88151 0.5387,0.31832 1.37123,0.31832 1.44469,0 2.44863,-0.55094 1.01619,-0.56319 1.93442,-1.77526 l 0.89375,0.74683 q -1.10188,1.56713 -2.82817,2.50985 -1.71404,0.93048 -3.61173,0.93048 z m 2.76695,-9.69658 q 0,-1.04067 -0.37953,-1.59161 -0.37954,-0.56319 -1.05291,-0.56319 -0.94273,0 -1.78751,1.54264 -0.83253,1.53039 -1.06515,3.88108 0.72235,-0.0857 1.43245,-0.22038 0.7101,-0.13467 1.12637,-0.31832 0.91824,-0.40402 1.32226,-1.04067 0.40402,-0.63664 0.40402,-1.68955 z"
         style="font-style:italic;font-variant:normal;font-weight:bold;font-stretch:normal;font-size:25.07399178px;font-family:Georgia;-inkscape-font-specification:'Georgia, Bold Italic';font-variant-ligatures:normal;font-variant-caps:normal;font-variant-numeric:normal;font-feature-settings:normal;text-align:center;writing-mode:lr-tb;text-anchor:middle;fill:#231f20;fill-opacity:1;stroke-width:0.62684977"
         id="path899" />
      <path
         d="m 21.871829,204.37229 -1.065154,-6.32971 -3.966784,6.32971 z m -1.958905,6.99084 0.208134,-0.89375 q 1.261045,-0.0979 1.958905,-0.30607 0.710103,-0.22038 0.710103,-0.47749 0,-0.22037 -0.02449,-0.37954 -0.02449,-0.15916 -0.06122,-0.36729 l -0.612158,-3.41584 h -5.986905 q -0.293836,0.45299 -0.746833,1.19983 -0.440753,0.73459 -0.746832,1.26104 -0.465241,0.83254 -0.550943,1.13862 -0.07346,0.30608 -0.07346,0.39178 0,0.36729 0.575429,0.61216 0.575428,0.23262 1.763015,0.3428 l -0.208134,0.89375 H 8.8206209 l 0.2081337,-0.89375 q 0.3550516,-0.0245 0.8937507,-0.12243 0.5386987,-0.0979 0.9059937,-0.29383 0.514213,-0.26935 0.96721,-0.69786 0.452997,-0.42851 0.844778,-1.04067 2.485361,-3.81987 4.566699,-7.05206 2.081337,-3.24444 4.823805,-7.5173 h 2.424145 q 0.942724,5.48493 1.554882,9.07218 0.624401,3.58725 1.089641,5.99915 0.06122,0.36729 0.23262,0.67337 0.183647,0.29384 0.575428,0.56319 0.293836,0.19589 0.710104,0.29383 0.42851,0.0979 0.795805,0.12243 l -0.208134,0.89375 z"
         style="font-style:italic;font-variant:normal;font-weight:bold;font-stretch:normal;font-size:25.07399178px;font-family:Georgia;-inkscape-font-specification:'Georgia, Bold Italic';font-variant-ligatures:normal;font-variant-caps:normal;font-variant-numeric:normal;font-feature-settings:normal;text-align:center;writing-mode:lr-tb;text-anchor:middle;fill:#231f20;fill-opacity:1;stroke-width:0.62684977"
         id="path901" />
      <path
         d="m 45.42767,203.62546 q 0,1.66507 -0.563186,3.17098 -0.563185,1.49366 -1.616097,2.57106 -1.114127,1.13861 -2.644522,1.76301 -1.530395,0.62441 -3.403599,0.62441 -0.452997,0 -1.334504,-0.0979 -0.881508,-0.0979 -1.579368,-0.34281 -0.881507,-0.30608 -1.66507,-0.86926 -0.771319,-0.56319 -1.35899,-1.46918 l 3.073033,-13.19813 q 0.04897,-0.20813 0.07346,-0.39178 0.02449,-0.18365 0.02449,-0.30608 0,-0.40402 -0.159161,-0.67337 -0.146918,-0.26935 -0.428511,-0.42851 -0.281592,-0.14692 -0.673373,-0.22038 -0.379538,-0.0735 -0.881508,-0.12243 l 0.220377,-0.90599 6.452145,-0.31833 0.134675,0.19589 -1.848717,7.93357 h 0.0857 q 0.281593,-0.23262 0.612158,-0.46524 0.330565,-0.24486 0.881507,-0.5387 0.416268,-0.22037 1.089642,-0.40402 0.685617,-0.19589 1.236559,-0.19589 2.13031,0 3.195465,1.26104 1.077398,1.24881 1.077398,3.42809 z m -4.383052,-0.049 q 0,-0.59992 -0.0857,-1.10189 -0.0857,-0.51421 -0.306079,-0.88151 -0.220377,-0.37953 -0.599914,-0.58767 -0.367295,-0.20813 -0.930481,-0.20813 -0.624401,0 -1.187586,0.35505 -0.563186,0.34281 -1.003939,0.80805 l -1.542638,6.83168 q 0,0.29384 0.0857,0.59992 0.0857,0.30608 0.330565,0.63664 0.244863,0.34281 0.538699,0.52646 0.293836,0.18364 0.844778,0.18364 0.832535,0 1.554881,-0.61215 0.73459,-0.62441 1.224316,-1.62834 0.538699,-1.0774 0.808049,-2.26499 0.269349,-1.19983 0.269349,-2.65676 z"
         style="font-style:italic;font-variant:normal;font-weight:bold;font-stretch:normal;font-size:25.07399178px;font-family:Georgia;-inkscape-font-specification:'Georgia, Bold Italic';font-variant-ligatures:normal;font-variant-caps:normal;font-variant-numeric:normal;font-feature-settings:normal;text-align:center;writing-mode:lr-tb;text-anchor:middle;fill:#231f20;fill-opacity:1;stroke-width:0.62684977"
         id="path903" />
      <path
         d="m 61.331533,204.02948 q 0,1.54264 -0.587672,2.9506 -0.587671,1.40797 -1.665069,2.44864 -1.163101,1.11412 -2.730225,1.72628 -1.554881,0.59992 -3.501544,0.59992 -2.607793,0 -4.211647,-1.38348 -1.603854,-1.39572 -1.603854,-3.79538 0,-1.62834 0.599915,-3.02406 0.612158,-1.39572 1.701799,-2.43639 1.077398,-1.01618 2.644523,-1.60385 1.567124,-0.59992 3.391355,-0.59992 2.766954,0 4.358565,1.35899 1.603854,1.34675 1.603854,3.75865 z M 57.021941,202.646 q 0,-1.43244 -0.489727,-2.10582 -0.477483,-0.67337 -1.39572,-0.67337 -0.942723,0 -1.726285,0.75907 -0.783563,0.74684 -1.273289,2.20377 -0.428511,1.21208 -0.612158,2.63228 -0.183648,1.40797 -0.183648,2.52209 0,1.48143 0.489727,2.1548 0.489726,0.66113 1.420206,0.66113 1.00394,0 1.738529,-0.82029 0.73459,-0.82029 1.1631,-2.02012 0.428511,-1.17535 0.648888,-2.59555 0.220377,-1.43245 0.220377,-2.71799 z"
         style="font-style:italic;font-variant:normal;font-weight:bold;font-stretch:normal;font-size:25.07399178px;font-family:Georgia;-inkscape-font-specification:'Georgia, Bold Italic';font-variant-ligatures:normal;font-variant-caps:normal;font-variant-numeric:normal;font-feature-settings:normal;text-align:center;writing-mode:lr-tb;text-anchor:middle;fill:#231f20;fill-opacity:1;stroke-width:0.62684977"
         id="path905" />
      <path
         d="m 72.007568,209.41647 h -0.0857 q -1.285532,1.17535 -2.448632,1.73853 -1.1631,0.56319 -2.693495,0.56319 -1.358991,0 -2.105824,-0.74684 -0.734589,-0.74683 -0.734589,-1.81198 0,-0.37954 0.03673,-0.77132 0.04897,-0.39178 0.23262,-1.10189 l 0.918237,-3.44033 q 0.0857,-0.3428 0.195891,-0.93048 0.122431,-0.59991 0.122431,-0.8815 0,-0.67338 -0.281592,-0.94273 -0.26935,-0.28159 -1.065155,-0.28159 -0.391781,0 -0.808049,0.12243 -0.404024,0.12243 -0.69786,0.23262 l 0.26935,-1.10188 q 0.991696,-0.40403 1.897689,-0.68562 0.905994,-0.29383 1.714043,-0.29383 1.456936,0 2.240498,0.73458 0.795806,0.72235 0.795806,1.79975 0,0.22038 -0.04897,0.80805 -0.04897,0.58767 -0.195891,1.08964 l -0.89375,3.25668 q -0.122432,0.42851 -0.195891,0.93048 -0.07346,0.48973 -0.07346,0.7101 0,0.57543 0.26935,0.91824 0.269349,0.33057 0.93048,0.33057 0.477483,0 1.261045,-0.39179 0.795806,-0.40402 1.567125,-1.13861 l 2.020121,-8.83956 3.905568,-0.17141 0.146918,0.17141 -1.738529,7.52954 q -0.0857,0.35505 -0.208133,0.94273 -0.110189,0.58767 -0.110189,0.86926 0,0.7101 0.306079,0.96721 0.318322,0.25711 1.101885,0.25711 0.367294,0 0.832535,-0.12244 0.46524,-0.13467 0.673373,-0.23262 l -0.269349,1.10189 q -1.212073,0.47748 -1.934419,0.73459 -0.722347,0.24486 -1.677313,0.24486 -1.346748,0 -2.154797,-0.59991 -0.808048,-0.61216 -1.016182,-1.56713 z"
         style="font-style:italic;font-variant:normal;font-weight:bold;font-stretch:normal;font-size:25.07399178px;font-family:Georgia;-inkscape-font-specification:'Georgia, Bold Italic';font-variant-ligatures:normal;font-variant-caps:normal;font-variant-numeric:normal;font-feature-settings:normal;text-align:center;writing-mode:lr-tb;text-anchor:middle;fill:#231f20;fill-opacity:1;stroke-width:0.62684977"
         id="path907" />
      <path
         d="m 84.36092,211.68146 q -1.46918,0 -2.350687,-0.71011 -0.881508,-0.72234 -0.881508,-1.82423 0,-0.45299 0.06122,-0.85702 0.06122,-0.40402 0.195891,-1.04067 l 1.518152,-6.51336 h -2.240499 l 0.293836,-1.26104 h 2.289471 l 0.881508,-3.70968 h 3.966784 l -0.857022,3.70968 h 3.317897 l -0.293836,1.26104 H 86.95647 l -1.493666,6.51336 q -0.0857,0.34281 -0.171404,0.83254 -0.07346,0.48972 -0.07346,0.63664 0,0.69786 0.379538,0.96721 0.391781,0.26935 1.187586,0.26935 0.379538,0 1.040669,-0.14692 0.673374,-0.14691 0.942723,-0.24486 l -0.269349,1.10188 q -1.077398,0.47749 -2.16704,0.74684 -1.077398,0.26935 -1.971148,0.26935 z"
         style="font-style:italic;font-variant:normal;font-weight:bold;font-stretch:normal;font-size:25.07399178px;font-family:Georgia;-inkscape-font-specification:'Georgia, Bold Italic';font-variant-ligatures:normal;font-variant-caps:normal;font-variant-numeric:normal;font-feature-settings:normal;text-align:center;writing-mode:lr-tb;text-anchor:middle;fill:#231f20;fill-opacity:1;stroke-width:0.62684977"
         id="path909" />
      <path
         d="m 115.69117,193.99009 -1.15086,4.97072 h -0.94272 q -0.049,-0.41626 -0.19589,-1.04066 -0.13468,-0.62441 -0.37954,-1.23656 -0.25711,-0.63665 -0.56319,-1.05292 -0.29383,-0.41626 -0.7101,-0.48972 -0.3673,-0.049 -0.94272,-0.0857 -0.56319,-0.0367 -0.97946,-0.0367 h -0.61216 l -3.122,13.5042 q -0.049,0.20814 -0.0857,0.40403 -0.0245,0.18364 -0.0245,0.26935 0,0.29383 0.11019,0.52645 0.12243,0.22038 0.44075,0.35505 0.29384,0.12243 0.85702,0.24487 0.56319,0.11018 0.93048,0.14691 l -0.20813,0.89375 h -9.68434 l 0.208134,-0.89375 q 0.342809,-0.0245 1.003939,-0.0979 0.661127,-0.0735 0.942727,-0.17141 0.48972,-0.19589 0.73459,-0.52645 0.24486,-0.33057 0.3428,-0.78356 l 3.20771,-13.8715 h -0.47748 q -0.46524,0 -0.94272,0.0367 -0.46524,0.0245 -1.06516,0.0857 -0.44075,0.0612 -0.99169,0.52645 -0.5387,0.46524 -1.05292,1.01619 -0.612155,0.68561 -1.016179,1.2488 -0.391781,0.55094 -0.673374,1.02842 h -0.942723 l 1.150857,-4.97072 z"
         style="font-style:italic;font-variant:normal;font-weight:bold;font-stretch:normal;font-size:25.07399178px;font-family:Georgia;-inkscape-font-specification:'Georgia, Bold Italic';font-variant-ligatures:normal;font-variant-caps:normal;font-variant-numeric:normal;font-feature-settings:normal;text-align:center;writing-mode:lr-tb;text-anchor:middle;fill:#231f20;fill-opacity:1;stroke-width:0.62684977"
         id="path911" />
      <path
         d="m 129.92996,209.51442 -0.26935,1.0774 q -1.21207,0.47748 -1.93441,0.73459 -0.72235,0.24486 -1.67732,0.24486 -1.45693,0 -2.27723,-0.72235 -0.80804,-0.73459 -0.80804,-1.81199 0,-0.3428 0.0245,-0.75907 0.0367,-0.41627 0.22038,-1.13862 l 0.88151,-3.25668 q 0.13467,-0.52645 0.19589,-0.94272 0.0735,-0.42851 0.0735,-0.69786 0,-0.58767 -0.2816,-0.91824 -0.28159,-0.33056 -0.95496,-0.33056 -0.41627,0 -1.18759,0.33056 -0.77132,0.31833 -1.72629,1.19983 l -2.02012,8.83956 h -4.05248 l 3.59949,-15.58554 q 0.049,-0.20813 0.0735,-0.39178 0.0245,-0.18365 0.0245,-0.30608 0,-0.44075 -0.14692,-0.69786 -0.14691,-0.2571 -0.44075,-0.41627 -0.29384,-0.15916 -0.67337,-0.22037 -0.37954,-0.0612 -0.88151,-0.11019 l 0.22038,-0.90599 6.45214,-0.31833 0.13468,0.19589 -1.95891,8.47227 h 0.0857 q 1.13862,-1.00394 2.36293,-1.56712 1.22432,-0.57543 2.63228,-0.57543 1.35899,0 2.11807,0.74683 0.77132,0.74683 0.77132,1.81199 0,0.28159 -0.049,0.7958 -0.0367,0.50197 -0.19589,1.0774 l -0.93048,3.44033 q -0.12243,0.42851 -0.22037,0.97945 -0.0979,0.55094 -0.0979,0.83254 0,0.7101 0.30608,0.97945 0.31832,0.26935 1.10189,0.26935 0.36729,0 0.83253,-0.12243 0.46524,-0.13468 0.67337,-0.23262 z"
         style="font-style:italic;font-variant:normal;font-weight:bold;font-stretch:normal;font-size:25.07399178px;font-family:Georgia;-inkscape-font-specification:'Georgia, Bold Italic';font-variant-ligatures:normal;font-variant-caps:normal;font-variant-numeric:normal;font-feature-settings:normal;text-align:center;writing-mode:lr-tb;text-anchor:middle;fill:#231f20;fill-opacity:1;stroke-width:0.62684977"
         id="path913" />
      <path
         d="m 136.98202,211.76716 q -1.46917,0 -2.5833,-0.40403 -1.10189,-0.39178 -1.82423,-1.10188 -0.71011,-0.7101 -1.06516,-1.65283 -0.35505,-0.94272 -0.35505,-2.08133 0,-1.4447 0.5387,-2.80369 0.5387,-1.35899 1.60385,-2.44863 1.00394,-1.04067 2.54658,-1.68956 1.54264,-0.64888 3.4036,-0.64888 2.19153,0 3.33014,0.69786 1.15086,0.69786 1.15086,2.09358 0,1.3345 -0.9917,2.30171 -0.9917,0.95497 -2.6935,1.42021 -1.34674,0.40402 -2.30171,0.57543 -0.94272,0.1714 -2.31396,0.31832 0.0245,0.5387 0.14692,1.21207 0.12243,0.67338 0.3673,1.15086 0.29383,0.55094 0.83253,0.88151 0.5387,0.31832 1.37124,0.31832 1.44469,0 2.44863,-0.55094 1.01618,-0.56319 1.93442,-1.77526 l 0.89375,0.74683 q -1.10189,1.56713 -2.82817,2.50985 -1.71405,0.93048 -3.61174,0.93048 z m 2.76696,-9.69658 q 0,-1.04067 -0.37954,-1.59161 -0.37954,-0.56319 -1.05291,-0.56319 -0.94272,0 -1.7875,1.54264 -0.83254,1.53039 -1.06516,3.88108 0.72235,-0.0857 1.43245,-0.22038 0.71011,-0.13467 1.12637,-0.31832 0.91824,-0.40402 1.32226,-1.04067 0.40403,-0.63664 0.40403,-1.68955 z"
         style="font-style:italic;font-variant:normal;font-weight:bold;font-stretch:normal;font-size:25.07399178px;font-family:Georgia;-inkscape-font-specification:'Georgia, Bold Italic';font-variant-ligatures:normal;font-variant-caps:normal;font-variant-numeric:normal;font-feature-settings:normal;text-align:center;writing-mode:lr-tb;text-anchor:middle;fill:#231f20;fill-opacity:1;stroke-width:0.62684977"
         id="path915" />
      <path
         d="m 169.57331,193.99009 -1.0774,4.64016 h -0.94272 q -0.13468,-1.15086 -0.79581,-2.26499 -0.64888,-1.11412 -1.37123,-1.21207 -0.3673,-0.049 -0.96721,-0.0857 -0.58767,-0.0367 -1.10188,-0.0367 h -2.70574 l -1.60386,6.91738 h 1.72629 q 0.67337,0 1.26104,-0.1714 0.59992,-0.1714 1.15086,-0.6244 0.37954,-0.30608 0.83254,-1.01618 0.45299,-0.71011 0.63664,-1.23656 h 0.93048 l -1.68956,7.30916 h -0.91823 v -0.37953 q 0,-0.63665 -0.13468,-1.21208 -0.12243,-0.58767 -0.26935,-0.7958 -0.29383,-0.42851 -0.78356,-0.6244 -0.47748,-0.19589 -1.2488,-0.19589 h -1.72629 l -1.29777,5.59512 q -0.049,0.20813 -0.0857,0.39178 -0.0245,0.18365 -0.0245,0.28159 0,0.55095 0.453,0.80805 0.45299,0.25711 1.72628,0.39178 l -0.20813,0.89375 h -9.39051 l 0.20814,-0.89375 q 0.30608,-0.0122 0.90599,-0.0857 0.61216,-0.0857 0.906,-0.18365 0.47748,-0.15916 0.72234,-0.47748 0.25711,-0.31832 0.35505,-0.74683 l 2.80369,-12.14522 q 0.0612,-0.2571 0.0857,-0.42851 0.0245,-0.1714 0.0245,-0.2571 0,-0.51422 -0.52646,-0.79581 -0.51421,-0.29383 -1.68956,-0.46524 l 0.20814,-0.89375 z"
         style="font-style:italic;font-variant:normal;font-weight:bold;font-stretch:normal;font-size:25.07399178px;font-family:Georgia;-inkscape-font-specification:'Georgia, Bold Italic';font-variant-ligatures:normal;font-variant-caps:normal;font-variant-numeric:normal;font-feature-settings:normal;text-align:center;writing-mode:lr-tb;text-anchor:middle;fill:#231f20;fill-opacity:1;stroke-width:0.62684977"
         id="path917" />
      <path
         d="m 176.60088,192.60661 -3.29341,14.3245 q -0.0857,0.35505 -0.20813,0.94272 -0.11019,0.58768 -0.11019,0.86927 0,0.7101 0.35505,0.96721 0.35505,0.2571 1.17535,0.2571 0.30608,0 0.83253,-0.12243 0.52646,-0.13467 0.74683,-0.23262 l -0.26935,1.10189 q -1.21207,0.47748 -1.98339,0.72234 -0.77132,0.25711 -1.75077,0.25711 -1.46918,0 -2.31396,-0.7101 -0.84477,-0.72235 -0.84477,-1.82423 0,-0.453 0.0735,-0.94273 0.0857,-0.48972 0.18365,-0.94272 l 2.64452,-11.49633 q 0.049,-0.20813 0.0735,-0.39178 0.0245,-0.18365 0.0245,-0.30608 0,-0.44075 -0.14692,-0.69786 -0.14692,-0.2571 -0.44075,-0.41627 -0.29384,-0.15916 -0.67338,-0.22037 -0.37953,-0.0612 -0.8815,-0.11019 l 0.22037,-0.90599 6.45215,-0.31833 z"
         style="font-style:italic;font-variant:normal;font-weight:bold;font-stretch:normal;font-size:25.07399178px;font-family:Georgia;-inkscape-font-specification:'Georgia, Bold Italic';font-variant-ligatures:normal;font-variant-caps:normal;font-variant-numeric:normal;font-feature-settings:normal;text-align:center;writing-mode:lr-tb;text-anchor:middle;fill:#231f20;fill-opacity:1;stroke-width:0.62684977"
         id="path919" />
      <path
         d="m 186.21177,209.40423 h -0.0857 q -1.38348,1.26104 -2.54658,1.75077 -1.1631,0.48973 -2.57106,0.48973 -1.35899,0 -2.11807,-0.75908 -0.74683,-0.75907 -0.74683,-1.82423 0,-0.37954 0.0367,-0.77132 0.049,-0.39178 0.23262,-1.10188 l 0.91823,-3.34239 q 0.0857,-0.3428 0.19589,-0.93048 0.12244,-0.59991 0.12244,-0.8815 0,-0.69786 -0.2816,-0.95497 -0.26935,-0.26935 -1.06515,-0.26935 -0.39178,0 -0.80805,0.12243 -0.40403,0.12243 -0.69786,0.23262 l 0.26935,-1.10188 q 0.99169,-0.40403 1.89769,-0.68562 0.90599,-0.29383 1.71404,-0.29383 1.45694,0 2.2405,0.73458 0.7958,0.72235 0.7958,1.79975 0,0.22038 -0.049,0.80805 -0.049,0.58767 -0.19589,1.08964 l -0.89375,3.18322 q -0.12243,0.42851 -0.19589,0.91824 -0.0735,0.48972 -0.0735,0.7101 0,0.61216 0.29384,0.93048 0.30608,0.31832 0.95496,0.31832 0.5387,0 1.35899,-0.40402 0.83254,-0.41627 1.5304,-1.10189 l 1.86096,-8.77834 3.88108,-0.17141 0.17141,0.1959 -2.14256,9.95368 q -0.48972,2.22826 -1.37123,3.67295 -0.88151,1.45694 -2.04461,2.31396 -1.11413,0.82029 -2.4119,1.17534 -1.29778,0.3673 -2.63228,0.3673 -1.45694,0 -2.42415,-0.22038 -0.95496,-0.20813 -1.49366,-0.58767 -0.48973,-0.34281 -0.67338,-0.77132 -0.1714,-0.41627 -0.1714,-0.82029 0,-0.7101 0.50197,-1.26105 0.50197,-0.55094 1.37123,-0.55094 0.66113,0 1.17535,0.35505 0.52645,0.35505 0.91823,0.85702 0.37954,0.47749 0.67338,1.05292 0.30608,0.58767 0.46524,0.95496 0.22037,-0.0367 0.5387,-0.15916 0.33056,-0.11019 0.55094,-0.25711 0.31832,-0.20813 0.56318,-0.41626 0.24487,-0.20814 0.56319,-0.63665 0.61216,-0.82029 1.08964,-2.03236 0.47748,-1.21207 0.80805,-2.90163 z"
         style="font-style:italic;font-variant:normal;font-weight:bold;font-stretch:normal;font-size:25.07399178px;font-family:Georgia;-inkscape-font-specification:'Georgia, Bold Italic';font-variant-ligatures:normal;font-variant-caps:normal;font-variant-numeric:normal;font-feature-settings:normal;text-align:center;writing-mode:lr-tb;text-anchor:middle;fill:#231f20;fill-opacity:1;stroke-width:0.62684977"
         id="path921" />
      <path
         d="m 216.0361,201.98487 q 0,1.78751 -0.58767,3.55052 -0.58767,1.75077 -1.64059,3.09752 -1.08964,1.39572 -2.59555,2.26498 -1.50591,0.85703 -3.44032,0.85703 -1.78751,0 -2.90163,-0.69786 -1.10189,-0.69786 -1.50591,-2.00788 -1.31002,1.43245 -2.57107,2.05685 -1.26104,0.61216 -2.76695,0.61216 -1.42021,0 -2.2405,-0.88151 -0.82029,-0.88151 -0.82029,-2.21601 0,-0.48973 0.0979,-0.91824 0.0979,-0.44075 0.23262,-0.95497 l 0.83253,-2.90163 q 0.0857,-0.3428 0.19589,-0.93048 0.12243,-0.59991 0.12243,-0.8815 0,-0.64889 -0.28159,-0.93048 -0.26935,-0.29384 -1.06516,-0.29384 -0.39178,0 -0.80804,0.12243 -0.40403,0.12243 -0.69786,0.23262 l 0.26935,-1.10188 q 0.99169,-0.40403 1.89769,-0.68562 0.90599,-0.29383 1.71404,-0.29383 1.45693,0 2.2405,0.73458 0.7958,0.72235 0.7958,1.83648 0,0.40402 -0.12243,1.1631 -0.12243,0.74683 -0.26935,1.21207 l -0.7101,2.37518 q -0.12243,0.37953 -0.22038,0.95496 -0.0857,0.56319 -0.0857,0.80805 0,0.69786 0.37954,1.10188 0.39178,0.39179 0.90599,0.39179 0.15916,0 0.46524,-0.0367 0.30608,-0.049 0.63664,-0.20814 0.34281,-0.15916 0.83254,-0.50197 0.50197,-0.35505 0.96721,-0.8815 0,-0.22038 0.049,-0.63665 0.0612,-0.42851 0.17141,-1.01618 l 1.61609,-7.08879 3.90557,-0.17141 0.14692,0.17141 -1.6161,7.01533 q -0.0367,0.14692 -0.11019,0.6244 -0.0612,0.46524 -0.0612,0.96721 0,1.05291 0.50197,1.55488 0.51421,0.50197 1.50591,0.50197 1.66507,0 2.8649,-1.23656 1.21207,-1.2488 1.21207,-3.33014 0,-0.20813 -0.0245,-0.45299 -0.0245,-0.24487 -0.0979,-0.55095 -0.13468,-0.28159 -0.50197,-0.57542 -0.3673,-0.29384 -0.68562,-0.59992 -0.35505,-0.35505 -0.6244,-0.85702 -0.26935,-0.51421 -0.26935,-1.2488 0,-0.61216 0.23262,-1.02843 0.24486,-0.41627 0.6244,-0.68562 0.28159,-0.20813 0.7101,-0.33056 0.42851,-0.12243 0.75908,-0.12243 1.17534,0 1.79974,0.83253 0.63665,0.83254 0.63665,2.21601 z"
         style="font-style:italic;font-variant:normal;font-weight:bold;font-stretch:normal;font-size:25.07399178px;font-family:Georgia;-inkscape-font-specification:'Georgia, Bold Italic';font-variant-ligatures:normal;font-variant-caps:normal;font-variant-numeric:normal;font-feature-settings:normal;text-align:center;writing-mode:lr-tb;text-anchor:middle;fill:#231f20;fill-opacity:1;stroke-width:0.62684977"
         id="path923" />
      <path
         d="m 233.16429,209.51442 -0.26935,1.0774 q -1.21207,0.47748 -1.93442,0.73459 -0.72234,0.24486 -1.67731,0.24486 -1.45693,0 -2.27723,-0.72235 -0.80804,-0.73459 -0.80804,-1.81199 0,-0.3428 0.0245,-0.75907 0.0367,-0.41627 0.22038,-1.13862 l 0.88151,-3.25668 q 0.13467,-0.52645 0.19589,-0.94272 0.0735,-0.42851 0.0735,-0.69786 0,-0.58767 -0.2816,-0.91824 -0.28159,-0.33056 -0.95496,-0.33056 -0.41627,0 -1.18759,0.33056 -0.77132,0.31833 -1.72629,1.19983 l -2.02012,8.83956 h -4.05248 l 3.59949,-15.58554 q 0.049,-0.20813 0.0735,-0.39178 0.0245,-0.18365 0.0245,-0.30608 0,-0.44075 -0.14692,-0.69786 -0.14691,-0.2571 -0.44075,-0.41627 -0.29384,-0.15916 -0.67337,-0.22037 -0.37954,-0.0612 -0.88151,-0.11019 l 0.22037,-0.90599 6.45215,-0.31833 0.13467,0.19589 -1.9589,8.47227 h 0.0857 q 1.13862,-1.00394 2.36293,-1.56712 1.22432,-0.57543 2.63228,-0.57543 1.35899,0 2.11807,0.74683 0.77132,0.74683 0.77132,1.81199 0,0.28159 -0.049,0.7958 -0.0367,0.50197 -0.19589,1.0774 l -0.93048,3.44033 q -0.12243,0.42851 -0.22037,0.97945 -0.0979,0.55094 -0.0979,0.83254 0,0.7101 0.30608,0.97945 0.31832,0.26935 1.10188,0.26935 0.3673,0 0.83254,-0.12243 0.46524,-0.13468 0.67337,-0.23262 z"
         style="font-style:italic;font-variant:normal;font-weight:bold;font-stretch:normal;font-size:25.07399178px;font-family:Georgia;-inkscape-font-specification:'Georgia, Bold Italic';font-variant-ligatures:normal;font-variant-caps:normal;font-variant-numeric:normal;font-feature-settings:normal;text-align:center;writing-mode:lr-tb;text-anchor:middle;fill:#231f20;fill-opacity:1;stroke-width:0.62684977"
         id="path925" />
      <path
         d="m 240.21635,211.76716 q -1.46918,0 -2.5833,-0.40403 -1.10189,-0.39178 -1.82423,-1.10188 -0.71011,-0.7101 -1.06516,-1.65283 -0.35505,-0.94272 -0.35505,-2.08133 0,-1.4447 0.5387,-2.80369 0.5387,-1.35899 1.60385,-2.44863 1.00394,-1.04067 2.54658,-1.68956 1.54264,-0.64888 3.4036,-0.64888 2.19152,0 3.33014,0.69786 1.15086,0.69786 1.15086,2.09358 0,1.3345 -0.9917,2.30171 -0.9917,0.95497 -2.6935,1.42021 -1.34674,0.40402 -2.30171,0.57543 -0.94272,0.1714 -2.31396,0.31832 0.0245,0.5387 0.14692,1.21207 0.12243,0.67338 0.3673,1.15086 0.29383,0.55094 0.83253,0.88151 0.5387,0.31832 1.37123,0.31832 1.4447,0 2.44864,-0.55094 1.01618,-0.56319 1.93442,-1.77526 l 0.89375,0.74683 q -1.10189,1.56713 -2.82817,2.50985 -1.71405,0.93048 -3.61174,0.93048 z m 2.76696,-9.69658 q 0,-1.04067 -0.37954,-1.59161 -0.37954,-0.56319 -1.05291,-0.56319 -0.94272,0 -1.7875,1.54264 -0.83254,1.53039 -1.06516,3.88108 0.72235,-0.0857 1.43245,-0.22038 0.71011,-0.13467 1.12637,-0.31832 0.91824,-0.40402 1.32226,-1.04067 0.40403,-0.63664 0.40403,-1.68955 z"
         style="font-style:italic;font-variant:normal;font-weight:bold;font-stretch:normal;font-size:25.07399178px;font-family:Georgia;-inkscape-font-specification:'Georgia, Bold Italic';font-variant-ligatures:normal;font-variant-caps:normal;font-variant-numeric:normal;font-feature-settings:normal;text-align:center;writing-mode:lr-tb;text-anchor:middle;fill:#231f20;fill-opacity:1;stroke-width:0.62684977"
         id="path927" />
      <path
         d="m 254.17355,211.76716 q -1.46918,0 -2.5833,-0.40403 -1.10189,-0.39178 -1.82423,-1.10188 -0.71011,-0.7101 -1.06516,-1.65283 -0.35505,-0.94272 -0.35505,-2.08133 0,-1.4447 0.5387,-2.80369 0.5387,-1.35899 1.60385,-2.44863 1.00394,-1.04067 2.54658,-1.68956 1.54264,-0.64888 3.4036,-0.64888 2.19152,0 3.33014,0.69786 1.15085,0.69786 1.15085,2.09358 0,1.3345 -0.99169,2.30171 -0.9917,0.95497 -2.6935,1.42021 -1.34674,0.40402 -2.30171,0.57543 -0.94272,0.1714 -2.31396,0.31832 0.0245,0.5387 0.14692,1.21207 0.12243,0.67338 0.36729,1.15086 0.29384,0.55094 0.83254,0.88151 0.5387,0.31832 1.37123,0.31832 1.4447,0 2.44864,-0.55094 1.01618,-0.56319 1.93441,-1.77526 l 0.89376,0.74683 q -1.10189,1.56713 -2.82817,2.50985 -1.71405,0.93048 -3.61174,0.93048 z m 2.76696,-9.69658 q 0,-1.04067 -0.37954,-1.59161 -0.37954,-0.56319 -1.05291,-0.56319 -0.94273,0 -1.7875,1.54264 -0.83254,1.53039 -1.06516,3.88108 0.72235,-0.0857 1.43245,-0.22038 0.7101,-0.13467 1.12637,-0.31832 0.91824,-0.40402 1.32226,-1.04067 0.40403,-0.63664 0.40403,-1.68955 z"
         style="font-style:italic;font-variant:normal;font-weight:bold;font-stretch:normal;font-size:25.07399178px;font-family:Georgia;-inkscape-font-specification:'Georgia, Bold Italic';font-variant-ligatures:normal;font-variant-caps:normal;font-variant-numeric:normal;font-feature-settings:normal;text-align:center;writing-mode:lr-tb;text-anchor:middle;fill:#231f20;fill-opacity:1;stroke-width:0.62684977"
         id="path929" />
      <path
         d="m 270.57938,192.60661 -3.29341,14.3245 q -0.0857,0.35505 -0.20813,0.94272 -0.11019,0.58768 -0.11019,0.86927 0,0.7101 0.35505,0.96721 0.35506,0.2571 1.17535,0.2571 0.30608,0 0.83253,-0.12243 0.52646,-0.13467 0.74683,-0.23262 l -0.26934,1.10189 q -1.21208,0.47748 -1.9834,0.72234 -0.77132,0.25711 -1.75077,0.25711 -1.46918,0 -2.31396,-0.7101 -0.84477,-0.72235 -0.84477,-1.82423 0,-0.453 0.0735,-0.94273 0.0857,-0.48972 0.18364,-0.94272 l 2.64453,-11.49633 q 0.049,-0.20813 0.0734,-0.39178 0.0245,-0.18365 0.0245,-0.30608 0,-0.44075 -0.14692,-0.69786 -0.14692,-0.2571 -0.44075,-0.41627 -0.29384,-0.15916 -0.67338,-0.22037 -0.37953,-0.0612 -0.8815,-0.11019 l 0.22037,-0.90599 6.45215,-0.31833 z"
         style="font-style:italic;font-variant:normal;font-weight:bold;font-stretch:normal;font-size:25.07399178px;font-family:Georgia;-inkscape-font-specification:'Georgia, Bold Italic';font-variant-ligatures:normal;font-variant-caps:normal;font-variant-numeric:normal;font-feature-settings:normal;text-align:center;writing-mode:lr-tb;text-anchor:middle;fill:#231f20;fill-opacity:1;stroke-width:0.62684977"
         id="path931" />
    </g>
    <path
       style="fill:#231f20;fill-rule:evenodd;stroke-width:0.38052416"
       inkscape:connector-curvature="0"
       d="m 118.7835,233.77254 c 3.97854,0 7.37363,-1.71256 8.70102,-4.11953 2.30079,13.0867 -10.44638,21.07445 -21.84957,22.1896 C 78.805393,254.46656 74.771211,233.93473 55.543796,226.5277 38.777156,220.06891 17.97359,217.14011 9.2279598e-4,223.08872 L 3e-6,234.93524 c 9.8560227,-8.65003 25.676411,-10.58525 36.886053,-7.02912 18.211274,5.77824 27.298537,19.67776 16.719263,30.42551 -3.886124,3.94884 -11.558609,5.95177 -17.473788,5.72124 1.526642,-1.04068 2.38379,-2.45563 2.38125,-3.93089 0,-3.06642 -3.630946,-5.55307 -8.1079,-5.55307 -4.477421,0 -8.107914,2.48665 -8.107914,5.55307 0,4.06095 5.272855,5.44253 7.891806,5.81445 9.771416,1.85491 19.730894,-0.44215 25.786305,-5.49008 11.828036,-9.86061 7.396605,-21.83436 -5.168027,-30.96718 16.065916,4.30471 23.042276,25.79265 49.675509,25.80147 l -0.0131,0.003 c 18.4398,-0.0173 29.72852,4.65018 30.56533,16.16603 0.0571,-11.0759 -7.72076,-16.33294 -19.29363,-17.5243 12.74166,-3.71863 24.31084,-16.30743 15.35325,-29.53742 -1.53017,-1.99725 -5.25078,-3.35237 -8.31068,-3.35237 -5.13444,0 -9.29829,2.85196 -9.29829,6.36872 0,3.51645 4.16385,6.36841 9.29829,6.36841 z m -41.224139,8.18143 c 4.974909,3.99703 13.012919,8.80404 21.381982,9.04244 10.471217,0.29854 16.539037,-3.75958 18.511067,-7.37113 -3.23967,3.77469 -8.82655,6.87575 -18.421409,6.58507 -8.084904,-0.24469 -16.067288,-4.50342 -21.47164,-8.25638 z m -28.165233,-4.56389 c 3.338056,3.27018 6.960271,8.23938 5.614011,12.49937 -1.684205,5.3301 -7.202119,7.60858 -11.456541,7.9109 4.671454,-0.90918 9.070692,-3.12877 10.595816,-8.0164 1.284181,-4.1189 -1.759146,-8.95394 -4.753286,-12.39387 z m 28.484782,11.87581 c 2.318718,1.47102 5.174914,2.82173 7.949734,4.08993 4.624091,2.11441 8.823792,4.88858 10.569156,8.27181 3.333925,6.46258 -0.05008,11.46358 -4.244771,13.95369 -1.801719,1.49176 -5.162756,-0.12609 -3.754432,-1.79051 1.408339,-1.66441 5.128724,-0.47126 4.134688,1.34111 3.717377,-3.17349 5.764361,-7.50276 2.793201,-13.21424 -1.687869,-3.24498 -5.525725,-6.00908 -9.827961,-8.22205 -2.62631,-1.35103 -5.640681,-2.84094 -7.619615,-4.42942 z m -14.823096,1.25026 c -0.441868,1.75066 -1.322813,3.60651 -2.211132,5.38143 -1.480506,2.95777 -2.203305,6.20244 -0.881412,9.00559 2.646997,5.61227 8.942417,7.65991 13.567896,7.67188 -5.171239,-0.63395 -10.250981,-2.70017 -12.65613,-7.8495 -1.260281,-2.69261 -0.766935,-5.80627 0.431282,-8.71932 0.731062,-1.77744 1.613848,-3.77941 1.749496,-5.49008 z m -9.247717,-19.18648 c 0.445254,0.001 0.444773,-0.45687 -4.67e-4,-0.45506 -0.440612,0.002 -0.440612,0.45348 0,0.45506 z m 1.390396,1.01532 c 0.694592,2.1e-4 0.695044,-0.71341 4.52e-4,-0.71362 -0.694592,0 -0.694592,0.71362 0,0.71362 z m 1.650172,1.34284 c 1.03299,0 1.03299,-1.0613 0,-1.0613 -1.032989,0 -1.032989,1.0613 0,1.0613 z m 1.992264,2.02213 c 0.654033,-1.7e-4 1.184171,-0.36328 1.18442,-0.81125 -2.63e-4,-0.44797 -0.530387,-0.81107 -1.18442,-0.81124 -0.654019,1.8e-4 -1.184143,0.36328 -1.184405,0.81124 2.48e-4,0.44797 0.530371,0.81107 1.184405,0.81125 z m 2.548141,2.75748 c 2.093032,-0.0344 2.093032,-2.1682 0,-2.20258 -2.093032,0.0344 -2.093032,2.1682 0,2.20258 z m 3.050701,4.31163 c 2.143139,2.8e-4 3.216307,-1.77435 1.701067,-2.81218 -1.515254,-1.03784 -4.106188,-0.30278 -4.105764,1.16513 5.11e-4,0.9095 1.076832,1.6467 2.404697,1.64705 z m 1.49753,1.10382 c -4.842493,1.70153 -0.282772,3.9397 -2.167901,6.7249 3.932113,-1.24301 5.34365,-3.42071 2.167901,-6.7249 z m 0.579792,-0.15936 c 4.950999,-1.10916 4.242932,2.6227 8.441246,3.59518 -2.70585,0.73693 -5.073756,0.61663 -6.732673,-0.71298 -0.128772,-0.84463 -0.673583,-1.80358 -1.708573,-2.8822 z m -0.443239,6.34385 c 1.976627,0.24343 1.561449,0.87612 4.100859,1.2197 1.695695,-1.19545 1.006009,-2.13834 1.508553,-3.20814 -1.356363,0.0283 -2.55274,-0.24375 -3.522891,-0.8758 0.07212,1.19797 -0.693366,2.14463 -2.086521,2.86424 z m -5.863218,6.29975 c -0.897502,1.66658 -2.254799,3.38229 -3.5983,5.0177 -2.238243,2.72504 -3.807955,5.82611 -3.248865,8.74735 1.118676,5.84815 6.768092,8.64279 11.313549,9.22855 -4.917434,-1.26505 -9.366341,-3.92774 -10.369605,-9.29028 -0.527379,-2.8044 0.781651,-5.80564 2.730232,-8.52092 1.189004,-1.65776 2.587225,-3.51708 3.172989,-5.1824 z m -3.658525,4.38627 c -1.552703,1.42283 -3.566122,2.80346 -5.532631,4.1104 -3.278299,2.17613 -6.069661,4.84291 -6.746937,7.75282 -1.355458,5.82422 2.90035,9.60394 7.014525,11.05102 -4.189131,-2.17046 -7.348791,-5.58991 -6.08391,-10.92663 0.658413,-2.79117 3.159659,-5.41355 6.155187,-7.63692 1.828116,-1.35764 3.940844,-2.86802 5.193766,-4.35069 z m -4.928018,23.17594 c -1.340742,1.80137 1.7026,1.79382 2.164688,3.42828 1.152227,-1.40205 0.764161,-2.66616 -2.164688,-3.42828 z m 0.181156,-0.19651 c 1.663516,-1.56454 3.081959,0.23053 5.379069,-0.2554 -0.848768,0.91296 -1.944902,1.37527 -3.291162,1.15136 -0.448758,-0.3439 -1.132458,-0.64654 -2.08744,-0.89596 z m 2.746321,2.88597 c 0.982108,-0.32248 1.092922,0.0457 2.368825,-0.35523 0.191273,-0.89502 -0.548987,-1.15956 -0.823933,-1.73933 -0.583472,0.30768 -1.235461,0.44814 -1.955486,0.38169 0.586698,0.51049 0.689686,1.09373 0.410594,1.71287 z m 10.434895,-7.04549 c -0.747166,1.95662 2.223074,1.50345 3.1854,3.03272 0.687847,-1.53841 -0.08643,-2.71654 -3.1854,-3.03272 z m 0.115924,-0.21793 c 1.13659,-1.77208 3.082411,-0.22612 5.174903,-1.03673 -0.54392,1.01563 -1.470856,1.62753 -2.8562,1.60611 -0.544388,-0.2702 -1.307176,-0.46577 -2.318703,-0.56938 z m 3.584036,2.41736 c 0.857965,-0.45916 1.081884,-0.11558 2.202386,-0.69409 -0.09198,-0.90195 -0.897502,-1.05248 -1.34718,-1.57841 -0.474031,0.38579 -1.067621,0.61852 -1.791325,0.65883 0.732435,0.41318 1.015207,0.96776 0.936119,1.61367 z m 5.118825,-8.98858 c -0.14943,2.0193 2.624018,1.16144 4.020385,2.52412 0.216108,-1.60202 -0.892451,-2.64757 -4.020385,-2.52412 z m 0.04833,-0.22958 c 0.585764,-1.89333 2.950924,-0.6519 4.757433,-1.73807 -0.229905,1.07074 -0.955902,1.79948 -2.317331,1.97143 -0.614278,-0.18801 -1.418457,-0.27273 -2.440102,-0.23336 z m 4.227747,1.86593 c 0.704403,-0.56876 1.025339,-0.26391 1.949968,-0.98698 -0.358633,-0.87013 -1.191778,-0.90446 -1.788113,-1.35669 -0.349449,0.44373 -0.861192,0.75393 -1.557769,0.89501 0.840036,0.30202 1.281436,0.8059 1.395914,1.44866 z M 61.437002,258.13197 c -1.100281,4.55444 -0.167826,8.61634 5.237902,11.59805 1.963297,-6.82568 -4.246143,-4.38564 -5.237902,-11.59805 z m -12.125539,7.07636 c -5.983215,4.4291 -8.102848,8.97063 -5.094444,13.66238 -6.761186,-4.56641 -4.634676,-8.13325 5.094444,-13.66238 z m 7.357068,-2.7093 c -1.150387,1.7957 -1.388556,3.53472 0.380241,5.1506 1.852951,-2.66899 -1.075899,-2.11032 -0.380241,-5.1506 z m -8.99943,7.07888 c -1.473162,2.29895 -1.777994,4.52547 0.486923,6.59389 2.372504,-3.41661 -1.377986,-2.70142 -0.487375,-6.59389 z m 6.909698,-0.43145 c 0.0073,1.96104 0.816589,3.61754 3.388178,4.60515 0.119573,-2.954 -2.22998,-1.63226 -3.388646,-4.60515 z M 43.562738,267.398 c -9.002657,2.50491 -18.133588,2.4476 -26.83461,0.0983 -8.5828644,-2.31722 -9.2417449,3.95892 -0.430829,4.91471 10.085446,1.09405 18.846721,-0.81849 27.265439,-5.01297 z m -3.521067,3.28372 c -2.075016,2.80441 -2.394564,5.7521 -1.121873,8.65098 1.256134,2.85889 -3.083799,2.82456 -3.394617,-0.0548 -0.355873,-3.29538 1.30303,-6.04624 4.51649,-8.59619 z m -5.262722,3.12248 c 1.961151,0 1.961151,-2.01489 0,-2.01489 -1.961151,0 -1.961151,2.01489 0,2.01489 z m -3.587277,2.86109 c 3.133555,0.002 3.133555,-3.21479 0,-3.21664 -3.128139,0.002 -3.128139,3.21849 0,3.21664 z m -5.955168,3.52968 c 4.931084,0 4.931084,-5.0662 0,-5.0662 -4.931085,0 -4.931085,5.0662 0,5.0662 z m 71.297499,-22.39871 c 6.634737,3.72336 10.423387,8.5965 11.436757,14.20909 0.99913,5.53575 8.38149,3.2368 5.74414,-1.84609 -3.01805,-5.81729 -8.8808,-9.66252 -17.180897,-12.363 z m -3.578079,-0.94225 c 5.983229,4.4291 8.102396,8.97063 5.093538,13.66175 6.762108,-4.56641 4.635578,-8.13294 -5.093538,-13.66175 z m 24.133826,-4.18535 c 4.44615,-1.51794 9.10518,-1.73209 13.67455,-0.76748 4.50776,0.95202 4.4857,-2.26525 -0.0607,-2.51687 -5.20341,-0.28785 -9.56082,0.92084 -13.61385,3.28403 z m 11.91403,-4.37399 c 3.64153,0 3.64153,-3.74131 0,-3.74131 -3.64152,0 -3.64152,3.74131 0,3.74131 z m 4.18361,-14.43395 c 0.68469,0.001 0.68469,-0.70285 0,-0.70165 -0.68119,10e-4 -0.68119,0.70046 0,0.70165 z m 0.26898,2.58364 c 1.31773,0.0199 1.31773,-1.3442 0,-1.32425 -1.26075,0.0191 -1.26075,1.30516 0,1.32425 z m -0.22116,3.55235 c 1.99296,0.0241 1.99249,-2.03596 -4.7e-4,-2.01142 -1.92321,0.0235 -1.92321,1.98795 0,2.01142 z m -1.14534,3.8635 c 2.7287,0.004 2.7287,-2.80147 0,-2.79747 -2.68189,0.0279 -2.68189,2.76962 0,2.79747 z m -1.22257,27.83557 c -5.01353,0.4009 -2.11365,3.3593 -5.07054,5.35876 4.00337,-0.20628 6.26185,-1.78248 5.07054,-5.35876 z m 0.57887,-0.009 c 4.82594,0.13857 2.44148,3.22168 5.62642,4.99943 -2.69895,0.0384 -4.69903,-0.59269 -5.50918,-2.11566 0.28921,-0.76307 0.27036,-1.71666 -0.11724,-2.88345 z m -3.39185,5.41198 c 1.60005,0.65001 0.94026,1.10791 2.98355,1.97017 2.03824,-0.66071 1.88652,-1.63257 2.83046,-2.45011 -1.19086,-0.27714 -2.10124,-0.77944 -2.64608,-1.54408 -0.50438,1.05563 -1.61846,1.70815 -3.16793,2.02402 z m 0.89934,-11.40972 c -4.10959,1.63194 -5.12112,3.57093 -3.579,6.1256 2.67506,-2.39437 3.09208,-3.1272 3.579,-6.12529 z m 1.66673,-0.41066 c 4.73582,0.24627 6.87797,1.69146 7.1097,4.45146 -3.92934,-1.36016 -4.76984,-1.89679 -7.1097,-4.45146 z m -1.71409,-3.66195 c 4.40845,-1.20962 7.26143,-0.5593 9.24634,1.84798 -4.40156,-0.0343 -5.50137,-0.26139 -9.24634,-1.84798 z m -2.41067,0.89029 c -4.10867,1.63163 -5.12067,3.57125 -3.57807,6.12592 2.67505,-2.39437 3.09208,-3.12783 3.57807,-6.12592 z m 0.0496,-3.70036 c 3.51416,-2.18747 6.51934,-2.26116 9.60681,-0.48026 -4.14176,1.02099 -5.28847,1.07137 -9.60681,0.48057 z m -3.00931,1.5362 c -4.10867,1.63131 -5.12067,3.5703 -3.57899,6.12529 2.6755,-2.39406 3.09208,-3.12752 3.57899,-6.12529 z M 74.097716,238.01899 c 5.589191,1.72327 7.321211,5.05926 12.723256,6.23015 3.751877,0.81251 8.718045,-0.33382 10.34569,-4.23196 0.911299,-2.18242 0.0603,-5.1487 -4.346839,-6.12591 -3.929339,-0.86951 -7.905588,-0.20785 -9.181038,2.48255 -0.856126,1.80735 -0.01971,4.05371 3.590022,5.14052 -3.429554,-1.58691 -3.826819,-3.32561 -2.99506,-4.97392 1.255682,-2.48696 5.008011,-2.95148 8.244467,-2.17456 4.12016,0.98918 4.309127,3.5851 3.569786,5.49355 -1.090615,2.81448 -5.0241,4.0578 -8.936898,3.34135 -5.410323,-0.98949 -8.207671,-4.96133 -13.013386,-5.18177 z m -29.001123,-4.26314 c 0.822093,4.16079 4.998813,6.24716 5.099962,10.12672 0.06993,2.69513 -2.947698,5.63023 -8.866556,5.58992 -3.314609,-0.023 -7.22418,-1.42535 -7.3373,-4.59696 -0.09972,-2.82803 1.958245,-5.25043 6.087137,-5.32254 2.77206,-0.0485 5.679769,1.14002 6.172663,3.82003 -1.245112,-2.70331 -3.566122,-3.45945 -6.109212,-3.38229 -3.838309,0.11715 -5.556079,2.44949 -5.38964,4.79442 0.212429,2.98769 3.792334,3.84964 6.673836,3.90758 4.249355,0.085 7.108782,-2.14401 7.219595,-4.91723 0.153562,-3.83453 -4.608922,-6.8008 -3.550485,-10.01965 z m 57.054177,13.33045 c -0.77616,1.64964 -4.389029,0.81967 -3.556001,-0.81691 0.813524,-1.59824 4.313991,-0.79409 3.556001,0.81691 z m -14.632301,-1.28332 c -0.139575,0.3172 -0.834459,0.15766 -0.666691,-0.15305 0.157738,-0.29214 0.797857,-0.14519 0.666691,0.15305 z m 2.396419,0.68339 c -0.115777,0.23809 -0.491828,0.36653 -0.839116,0.28658 -0.842052,-0.19115 -0.419179,-1.05628 0.421164,-0.86163 0.347858,0.0793 0.535423,0.33708 0.418405,0.57505 z m 3.425875,0.67583 c -0.4527,0.83671 -2.286116,0.4164 -1.912255,-0.43838 0.427281,-0.87236 2.339537,-0.43398 1.912255,0.43838 z m 3.921996,0.33256 c -0.396637,0.81162 -2.027844,0.88939 -2.584977,0.1234 -0.557148,-0.76598 0.515991,-1.61101 1.700805,-1.33901 0.733953,0.16867 1.129524,0.71279 0.883719,1.21561 z m 63.354201,-13.7219 c -3.97854,0 -7.37362,-1.71256 -8.70103,-4.11953 -2.30123,13.08669 10.44593,21.07445 21.84914,22.18959 26.83001,2.62396 30.86419,-17.90788 50.09115,-25.31491 16.76709,-6.4591 37.57021,-9.3879 55.54286,-3.43929 l 9.2e-4,11.84652 c -9.85612,-8.65003 -25.67651,-10.58525 -36.88614,-7.02912 -18.21129,5.77824 -27.29854,19.67776 -16.71973,30.42551 3.88612,3.94884 11.55906,5.95177 17.47379,5.72124 -1.52644,-1.04075 -2.38341,-2.45568 -2.3808,-3.93089 0,-3.06642 3.63049,-5.55307 8.10791,-5.55307 4.47696,0 8.10745,2.48665 8.10745,5.55307 0,4.06095 -5.27285,5.44253 -7.89135,5.81445 -9.77187,1.85491 -19.73088,-0.44215 -25.78676,-5.49008 -11.82758,-9.86061 -7.39615,-21.83436 5.16756,-30.96718 -16.065,4.30471 -23.04136,25.79265 -49.67412,25.80147 l 0.0131,0.003 c -18.44026,-0.0173 -29.72807,4.65018 -30.5658,16.16603 -0.0561,-11.0759 7.72169,-16.33294 19.29454,-17.5243 -12.74164,-3.71863 -24.31175,-16.30743 -15.35323,-29.53742 1.53018,-1.99725 5.25031,-3.35237 8.31066,-3.35237 5.13355,0 9.29829,2.85196 9.29829,6.36872 0,3.51645 -4.16474,6.36841 -9.29829,6.36841 z m 41.22323,8.18143 c -4.97491,3.99702 -13.01247,8.80403 -21.38107,9.04243 -10.47167,0.29855 -16.53904,-3.75957 -18.51199,-7.37113 3.24059,3.77469 8.82701,6.87575 18.42187,6.58508 8.08537,-0.2447 16.0673,-4.50343 21.47119,-8.25638 z m 28.16615,-4.56389 c -3.33805,3.27018 -6.96072,8.23937 -5.61401,12.49936 1.68374,5.3301 7.20259,7.60858 11.45654,7.91091 -4.67237,-0.90919 -9.0707,-3.12878 -10.59628,-8.01641 -1.28418,-4.1189 1.75961,-8.95394 4.75375,-12.39386 z m -28.48535,11.87581 c -2.31872,1.47101 -5.17445,2.82172 -7.94882,4.08993 -4.62454,2.1144 -8.82424,4.88857 -10.57053,8.27181 -3.333,6.46257 0.0505,11.46357 4.24569,13.95368 0.43546,0.36155 1.08406,0.57085 1.76835,0.57065 1.2684,0 2.29664,-0.70428 2.29664,-1.57305 -0.001,-1.83479 -5.38675,-1.16495 -4.44616,0.55301 -3.71646,-3.1735 -5.76344,-7.50277 -2.79275,-13.21424 1.68742,-3.24499 5.52619,-6.00908 9.82798,-8.22206 2.62631,-1.35103 5.64113,-2.84094 7.6196,-4.42942 z m 14.82356,1.25025 c 0.44187,1.75067 1.32282,3.60652 2.21067,5.38143 1.48097,2.95778 2.20376,6.20245 0.88141,9.00559 -2.647,5.61228 -8.94195,7.65992 -13.56743,7.67188 5.17032,-0.63394 10.25006,-2.70016 12.65568,-7.8495 1.26073,-2.6926 0.76692,-5.80626 -0.43083,-8.71932 -0.73106,-1.77743 -1.61385,-3.77941 -1.7495,-5.49008 z m 9.24772,-19.18647 c -0.44293,0 -0.44293,-0.45507 0,-0.45507 0.44293,0 0.44293,0.45507 0,0.45507 z m -1.39085,1.01531 c -0.69396,0 -0.69396,-0.71299 0,-0.71299 0.69398,0 0.69398,0.71299 0,0.71299 z m -1.64972,1.34284 c -1.03656,0.002 -1.03611,-1.06395 4.6e-4,-1.06129 1.02941,0.003 1.02897,1.05906 -4.6e-4,1.06129 z m -1.99273,2.02213 c -0.65391,-3.5e-4 -1.18389,-0.36335 -1.1844,-0.81124 -4.1e-4,-0.72323 1.27612,-1.08549 2.02266,-0.57415 0.74655,0.51134 0.21765,1.38568 -0.83826,1.38539 z m -2.54769,2.75749 c -2.09344,-0.0341 -2.09344,-2.16847 0,-2.20259 2.09344,0.0341 2.09344,2.16847 0,2.20259 z m -3.05068,4.31163 c -3.14403,-0.0422 -3.14403,-3.2519 0,-3.29411 3.14404,0.0422 3.14404,3.2519 0,3.29411 z m -1.498,1.10381 c 4.84296,1.70154 0.28232,3.93971 2.16837,6.7249 -3.93212,-1.243 -5.34412,-3.42071 -2.16837,-6.7249 z m -0.58025,-0.15935 c -4.95099,-1.10917 -4.24201,2.62269 -8.44079,3.59518 2.70585,0.73692 5.07422,0.61662 6.73222,-0.71299 0.12877,-0.84463 0.67405,-1.80357 1.70857,-2.88219 z m 0.44416,6.34384 c -1.97662,0.24344 -1.56144,0.87612 -4.10086,1.21971 -1.69569,-1.19546 -1.00692,-2.13834 -1.50947,-3.20814 1.35683,0.0283 2.55274,-0.24375 3.52381,-0.87581 -0.0723,1.19798 0.69335,2.14464 2.08652,2.86424 z m 5.8623,6.29976 c 0.89842,1.66658 2.25572,3.38229 3.59875,5.01769 2.23918,2.72505 3.80751,5.82611 3.24934,8.74735 -1.11913,5.84815 -6.7681,8.6428 -11.31355,9.22856 4.91743,-1.26506 9.36634,-3.92774 10.37006,-9.29028 0.52645,-2.80441 -0.78164,-5.80564 -2.73114,-8.52092 -1.18902,-1.65777 -2.58723,-3.51708 -3.17346,-5.1824 z m 3.65945,4.38627 c 1.55225,1.42283 3.56612,2.80346 5.53218,4.1104 3.27828,2.17613 6.06966,4.84291 6.74739,7.75281 1.35545,5.82422 -2.90036,9.60395 -7.01545,11.05103 4.18958,-2.17046 7.34924,-5.58992 6.08483,-10.92663 -0.65841,-2.79118 -3.15966,-5.41356 -6.15564,-7.63693 -1.82766,-1.35764 -3.94039,-2.86802 -5.19331,-4.35068 z m 4.92755,23.17594 c 1.34074,1.80137 -1.70214,1.79381 -2.16468,3.42827 -1.15224,-1.40204 -0.7637,-2.66615 2.16468,-3.42827 z m -0.18116,-0.19651 c -1.66351,-1.56455 -3.08196,0.23052 -5.3786,-0.25541 0.84877,0.91297 1.94537,1.37528 3.29116,1.15137 0.44876,-0.3439 1.13201,-0.64654 2.08744,-0.89596 z m -2.74585,2.88597 c -0.98211,-0.32249 -1.09338,0.0457 -2.36883,-0.35524 -0.19127,-0.89501 0.54852,-1.15955 0.82394,-1.73933 0.58302,0.30768 1.23499,0.44814 1.95548,0.38169 -0.58715,0.51049 -0.68968,1.09373 -0.41059,1.71288 z m -10.4349,-7.0455 c 0.7467,1.95663 -2.22352,1.50345 -3.1854,3.03273 -0.68784,-1.53841 0.0864,-2.71654 3.1854,-3.03273 z m -0.11592,-0.21793 c -1.13659,-1.77208 -3.08288,-0.22611 -5.17492,-1.03673 0.54394,1.01563 1.47087,1.62753 2.85575,1.60612 0.54485,-0.27021 1.30764,-0.46578 2.31917,-0.56939 z m -3.58405,2.41736 c -0.85889,-0.45916 -1.08187,-0.11557 -2.20331,-0.69409 0.0929,-0.90194 0.89844,-1.05248 1.34765,-1.5784 0.4745,0.38578 1.06717,0.61851 1.79134,0.65882 -0.73245,0.41318 -1.01475,0.96776 -0.93568,1.61367 z m -5.11928,-8.98858 c 0.14943,2.0193 -2.624,1.16145 -4.01992,2.52412 -0.2161,-1.60202 0.89199,-2.64757 4.01992,-2.52412 z m -0.0477,-0.22958 c -0.58623,-1.89332 -2.95138,-0.65189 -4.75789,-1.73807 0.22989,1.07075 0.95544,1.79948 2.31779,1.97143 0.61382,-0.18801 1.41845,-0.27272 2.4401,-0.23336 z m -4.22822,1.86593 c -0.70393,-0.56875 -1.02532,-0.2639 -1.95042,-0.98697 0.35864,-0.87014 1.1927,-0.90447 1.78904,-1.3567 0.34945,0.44373 0.86072,0.75393 1.55777,0.89502 -0.84049,0.30201 -1.28189,0.80589 -1.39639,1.44865 z m 16.64434,-16.28916 c 1.10073,4.55444 0.16783,8.61634 -5.2379,11.59804 -1.9633,-6.82568 4.24567,-4.38564 5.2379,-11.59804 z m 12.12552,7.07667 c 5.98369,4.4291 8.10332,8.97063 5.09446,13.66238 6.76119,-4.56641 4.63512,-8.13325 -5.09446,-13.66238 z m -7.3566,-2.7093 c 1.15039,1.7957 1.38856,3.53472 -0.38025,5.1506 -1.85386,-2.66899 1.07591,-2.11032 0.38025,-5.1506 z m 8.99943,7.07888 c 1.4727,2.29895 1.778,4.52547 -0.48692,6.59389 -2.37296,-3.41661 1.37845,-2.70142 0.48692,-6.59389 z m -6.90969,-0.43145 c -0.007,1.96104 -0.81659,3.61754 -3.38865,4.60515 -0.11957,-2.954 2.22998,-1.63226 3.38865,-4.60515 z m 11.01606,-1.74846 c 9.00173,2.50491 18.13312,2.4476 26.83415,0.0983 8.58287,-2.31722 9.24175,3.95892 0.43037,4.91471 -10.085,1.09405 -18.84626,-0.81849 -27.26452,-5.01297 z m 3.5206,3.28372 c 2.07595,2.80441 2.39458,5.7521 1.12188,8.65098 -1.25614,2.85889 3.08426,2.82456 3.39507,-0.0548 0.35542,-3.29538 -1.30349,-6.04624 -4.51695,-8.59619 z m 5.26227,3.12248 c -1.99601,0.0243 -1.99601,-2.03888 0,-2.01457 1.92628,0.0235 1.92628,1.99111 0,2.01457 z m 3.58773,2.86109 c -1.29674,-1.7e-4 -2.34788,-0.72014 -2.34814,-1.60832 0.0609,-2.10237 4.63548,-2.10237 4.69627,0 0,0.88825 -1.05129,1.60832 -2.34813,1.60832 z m 5.95518,3.52968 c -4.93107,-2.1e-4 -4.93062,-5.06641 4.5e-4,-5.0662 4.93109,2.1e-4 4.93063,5.06641 -4.5e-4,5.0662 z m -71.29705,-22.39871 c -6.63474,3.72336 -10.42386,8.5965 -11.43723,14.20909 -0.99912,5.53575 -8.38194,3.2368 -5.74412,-1.84609 3.01804,-5.81729 8.88125,-9.66252 17.18135,-12.363 z m 3.57808,-0.94225 c -5.98323,4.4291 -8.10332,8.97063 -5.09354,13.66175 -6.76211,-4.56641 -4.63604,-8.13294 5.09354,-13.66175 z m -24.13383,-4.18535 c -4.44707,-1.51794 -9.10518,-1.73209 -13.67455,-0.76748 -4.50777,0.95202 -4.48662,-2.26525 0.0597,-2.51687 5.20433,-0.28785 9.56174,0.92084 13.61477,3.28403 z m -11.91448,-4.37399 c -3.64152,0 -3.64152,-3.74131 0,-3.74131 3.64153,0 3.64153,3.74131 0,3.74131 z m -4.18361,-14.43395 c -0.68468,9.9e-4 -0.68423,-0.70306 4.5e-4,-0.70165 0.68119,10e-4 0.68075,0.70066 -4.5e-4,0.70165 z m -0.26898,2.58364 c -0.53405,1.7e-4 -0.96697,-0.29649 -0.96647,-0.66228 -0.003,-0.88468 1.93594,-0.88468 1.93294,0 0,0.36564 -0.43262,0.66211 -0.96647,0.66228 z m 0.22161,3.55235 c -1.99296,0.0241 -1.99248,-2.03596 4.7e-4,-2.01142 1.92321,0.0235 1.92321,1.98795 0,2.01142 z m 1.14487,3.8635 c -2.72868,0.004 -2.72868,-2.80147 0,-2.79747 2.71705,0.004 2.71705,2.79349 0,2.79747 z m 1.22304,27.83557 c 5.01353,0.4009 2.11365,3.3593 5.07054,5.35876 -4.00383,-0.20628 -6.26185,-1.78248 -5.07054,-5.35876 z m -0.57933,-0.009 c -4.82548,0.13857 -2.44147,3.22168 -5.62688,4.99943 2.69941,0.0384 4.69903,-0.59269 5.5101,-2.11566 -0.28921,-0.76307 -0.27036,-1.71666 0.1168,-2.88345 z m 3.39186,5.41198 c -1.5996,0.65001 -0.93981,1.10791 -2.9831,1.97017 -2.03916,-0.66071 -1.88697,-1.63257 -2.83046,-2.45011 1.19084,-0.27714 2.10124,-0.77944 2.64608,-1.54408 0.50393,1.05563 1.61754,1.70815 3.16748,2.02402 z m -0.89889,-11.40972 c 4.10867,1.63194 5.12112,3.57093 3.57899,6.1256 -2.67505,-2.39437 -3.09206,-3.1272 -3.57899,-6.12529 z m -1.66673,-0.41066 c -4.73582,0.24627 -6.87797,1.69146 -7.11017,4.45146 3.92889,-1.36016 4.7694,-1.89679 7.11017,-4.45146 z m 1.71409,-3.66195 c -4.40937,-1.20962 -7.26235,-0.5593 -9.24634,1.84798 4.40156,-0.0343 5.50137,-0.26139 9.24634,-1.84798 z m 2.40975,0.89029 c 4.10867,1.63163 5.12157,3.57125 3.57899,6.12592 -2.67505,-2.39437 -3.09208,-3.12783 -3.57899,-6.12592 z m -0.0488,-3.70036 c -3.51463,-2.18747 -6.51934,-2.26116 -9.60682,-0.48026 4.14132,1.02099 5.28848,1.07137 9.60682,0.48057 z m 3.00931,1.5362 c 4.10867,1.63131 5.12066,3.5703 3.57853,6.12529 -2.67504,-2.39406 -3.09162,-3.12752 -3.57853,-6.12529 z m 49.43826,-22.32312 c -5.58919,1.72327 -7.32168,5.05926 -12.72326,6.23015 -3.75188,0.81251 -8.71897,-0.33382 -10.34569,-4.23196 -0.9113,-2.18242 -0.0603,-5.1487 4.34637,-6.12591 3.92889,-0.86951 7.90606,-0.20785 9.18197,2.48255 0.85521,1.80735 0.0193,4.05371 -3.59095,5.14052 3.43002,-1.58691 3.82728,-3.32561 2.99552,-4.97392 -1.25613,-2.48696 -5.00893,-2.95148 -8.24492,-2.17456 -4.1197,0.98918 -4.30867,3.5851 -3.56933,5.49355 1.0897,2.81448 5.02318,4.0578 8.9369,3.34135 5.41033,-0.98949 8.20722,-4.96133 13.01339,-5.18177 z m 29.00112,-4.26314 c -0.82209,4.16079 -4.99881,6.24716 -5.09996,10.12672 -0.0699,2.69513 2.94723,5.63023 8.86564,5.58992 3.31506,-0.023 7.2251,-1.42535 7.33775,-4.59696 0.0997,-2.82803 -1.95823,-5.25043 -6.08714,-5.32254 -2.77206,-0.0485 -5.67975,1.14002 -6.17265,3.82003 1.2451,-2.70331 3.56611,-3.45945 6.1092,-3.38229 3.83831,0.11715 5.55608,2.44949 5.38964,4.79442 -0.21196,2.98769 -3.79233,3.84964 -6.67337,3.90758 -4.24982,0.085 -7.10923,-2.14401 -7.22005,-4.91723 -0.1531,-3.83453 4.60891,-6.8008 3.55094,-10.01965 z m -57.0551,13.33045 c 0.32962,0.67242 1.39241,1.0347 2.37434,0.80936 2.37087,-0.54402 1.17911,-2.97934 -1.19176,-2.43532 -0.98204,0.22536 -1.51148,0.95329 -1.18258,1.62596 z m 14.63322,-1.28332 c 0.1295,0.33095 0.85547,0.16347 0.66623,-0.15368 -0.16402,-0.28384 -0.7866,-0.14033 -0.6667,0.15368 z m -2.39642,0.68339 c 0.11578,0.23809 0.49183,0.36653 0.83912,0.28658 0.98766,-0.22632 -1.16954,-0.96306 -0.83912,-0.28658 z m -3.42634,0.67583 c 0.40565,0.90188 2.38126,0.44909 1.91272,-0.43838 -0.44651,-0.84575 -2.29928,-0.42111 -1.91272,0.43838 z m -3.92108,0.33256 c 0.55324,1.26893 3.33354,0.63009 2.65759,-0.61064 -0.63075,-1.16281 -3.17879,-0.57704 -2.65759,0.61095"
       id="path839"
       sodipodi:nodetypes="ccccccccccssccccccccssccccccccccccccccsccccccccccccccccccccssscccccccccsccccccccccccccccccccccccccccccccccccccccccccccccccccccccccccccccccccccccccccccccccccscccccccssscccsssccccccccccccsssssssssccccccccccccccccccccccccccccccccccccccccccccccccccccccccccccccsssssscccccccccscccccccccccccssccccccccssccccccccccccccccccccccccccccccsssssssssccscccccccscscccccccccccaccscccccccccccccccccccccccccccccccccccccccccccccccccccccccccccccccccccccasaccscsssccccccccccccssssssccccccccssscaccscccccccccccccccccccscccccccccccaccsccccccccccccccccccccccccccsssccc" />
    <path
       style="fill:#231f20;fill-rule:evenodd;stroke-width:0.38052425"
       inkscape:connector-curvature="0"
       d="m 118.78357,141.68146 c 3.97854,0 7.37363,1.71225 8.70102,4.11922 2.30079,-13.08639 -10.44639,-21.07414 -21.84959,-22.1896 -26.829573,-2.62364 -30.863757,17.90788 -50.091182,25.31491 -16.766648,6.45973 -37.570225,9.3879 -55.54290120355,3.43961 L -2.9999999e-6,140.51907 C 9.8560248,149.1688 25.676422,151.10432 36.886069,147.54788 c 18.211298,-5.77793 27.298551,-19.67776 16.719286,-30.42583 -3.88614,-3.94821 -11.55863,-5.95113 -17.473812,-5.7206 1.526614,1.04056 2.383777,2.45541 2.381251,3.93057 0,3.06674 -3.630947,5.55339 -8.107903,5.55339 -4.477423,0 -8.107918,-2.48665 -8.107918,-5.55339 0,-4.06064 5.272857,-5.44253 7.891809,-5.81414 9.771422,-1.8549 19.730905,0.44216 25.786319,5.49008 11.828057,9.8603 7.396609,21.83405 -5.16803,30.96718 16.065924,-4.30502 23.042303,-25.79265 49.675539,-25.80178 l -0.0131,-0.003 c 18.43982,0.0176 29.72854,-4.65049 30.56535,-16.16572 0.0571,11.07591 -7.72076,16.33295 -19.29364,17.52399 12.74166,3.71863 24.31085,16.30743 15.35326,29.53774 -1.53018,1.99693 -5.25078,3.35206 -8.31068,3.35206 -5.13445,0 -9.2983,-2.85165 -9.2983,-6.36841 0,-3.51677 4.16385,-6.36841 9.2983,-6.36841 z m -41.224175,-8.18174 c 4.97492,-3.99703 13.012934,-8.80404 21.382001,-9.04275 10.471224,-0.29792 16.539054,3.7602 18.511084,7.37175 -3.23967,-3.775 -8.82656,-6.87606 -18.421425,-6.58539 -8.084909,0.2447 -16.067297,4.50343 -21.47166,8.25639 z m -28.165248,4.56388 c 3.338058,-3.26986 6.960275,-8.23906 5.614014,-12.49873 -1.684206,-5.33041 -7.202123,-7.60921 -11.456547,-7.91154 4.671442,0.90951 9.070712,3.12878 10.595822,8.01673 1.284196,4.1189 -1.759147,8.95394 -4.753289,12.39354 z m 28.484811,-11.87581 c 2.318705,-1.4707 5.174911,-2.82172 7.949732,-4.08992 4.624095,-2.11409 8.823798,-4.88827 10.569162,-8.2715 3.333927,-6.46257 -0.05008,-11.46358 -4.244773,-13.953687 -1.80172,-1.491751 -5.162759,0.12609 -3.754433,1.790507 1.408339,1.66441 5.128726,0.47126 4.134689,-1.34111 3.717379,3.1735 5.764364,7.50277 2.793203,13.21424 -1.68787,3.24499 -5.525728,6.00908 -9.827967,8.22206 -2.626311,1.35071 -5.640693,2.84093 -7.619613,4.42941 z M 63.05584,124.93754 c -0.441867,-1.75066 -1.322813,-3.6062 -2.211118,-5.38175 -1.480522,-2.95714 -2.203307,-6.20149 -0.881428,-9.00495 2.647014,-5.61259 8.942422,-7.65992 13.567903,-7.6722 -5.171241,0.63426 -10.250985,2.70048 -12.656136,7.84981 -1.260282,2.69229 -0.766921,5.80596 0.431282,8.71869 0.731063,1.77775 1.613863,3.78005 1.749497,5.4904 z m -9.247721,19.18648 c 0.443692,-7.3e-4 0.443692,0.45548 0,0.45475 -0.441561,-7.3e-4 -0.441561,-0.45402 0,-0.45475 z m 1.390396,-1.01532 c 0.697323,-0.002 0.697323,0.7156 0,0.71393 -0.692461,-0.002 -0.692461,-0.71227 0,-0.71393 z m 1.650173,-1.34284 c 1.034596,-0.001 1.034596,1.06229 0,1.06098 -1.03077,-0.001 -1.03077,-1.05967 0,-1.06098 z m 1.992265,-2.02182 c 1.526015,0.0356 1.526015,1.58655 0,1.62218 -1.526015,-0.0356 -1.526015,-1.58655 0,-1.62218 z m 2.548157,-2.75779 c 2.148207,-0.002 2.147813,2.20597 -3.94e-4,2.20321 -2.140687,-0.003 -2.140293,-2.20082 3.94e-4,-2.20321 z m 3.050688,-4.31132 c 1.327792,3.5e-4 2.403968,0.7376 2.404231,1.64705 -0.06161,2.15345 -4.747756,2.15345 -4.809382,0 5.11e-4,-0.9095 1.076833,-1.6467 2.404698,-1.64705 z m 1.497531,-1.10413 c -4.842495,-1.70154 -0.282772,-3.93939 -2.167902,-6.72459 3.932115,1.24301 5.343667,3.42009 2.167902,6.72459 z m 0.579793,0.15967 c 4.951001,1.10853 4.242933,-2.62301 8.441249,-3.5955 -2.705851,-0.73692 -5.073758,-0.61662 -6.732676,0.71299 -0.128772,0.84463 -0.673583,1.80358 -1.708573,2.88251 z m -0.44324,-6.34416 c 1.976628,-0.24344 1.561449,-0.87612 4.100861,-1.21939 1.695696,1.19514 1.006009,2.13834 1.508554,3.20782 -1.356364,-0.028 -2.552742,0.24407 -3.522893,0.87612 0.07212,-1.19828 -0.693352,-2.14495 -2.086522,-2.86455 z m -5.863221,-6.29944 c -0.897502,-1.6669 -2.2548,-3.38261 -3.598302,-5.01833 -2.238244,-2.72472 -3.807957,-5.82547 -3.248867,-8.74672 1.118662,-5.848147 6.768096,-8.642769 11.313555,-9.228526 -4.917436,1.265041 -9.366346,3.927716 -10.36961,9.290256 -0.527365,2.8044 0.781652,5.80501 2.730233,8.52092 1.189005,1.65776 2.587227,3.51708 3.172991,5.1824 z m -3.658527,-4.38627 c -1.552704,-1.42315 -3.566124,-2.80378 -5.532634,-4.1104 -3.278286,-2.17613 -6.069664,-4.84354 -6.74694,-7.75313 -1.355444,-5.824202 2.900351,-9.603911 7.014528,-11.050662 -4.189133,2.170448 -7.348794,5.589567 -6.083913,10.926582 0.658413,2.79086 3.159661,5.41292 6.15519,7.63692 1.828117,1.35764 3.940846,2.86802 5.193769,4.35069 z M 51.624113,91.524711 c -1.340742,-1.801361 1.702602,-1.793801 2.16469,-3.428572 1.152228,1.402041 0.764176,2.666455 -2.16469,3.428572 z m 0.181156,0.196507 c 1.663518,1.564541 3.081961,-0.230837 5.379072,0.25509 -0.848768,-0.912647 -1.944902,-1.374954 -3.291163,-1.151044 -0.448758,0.343267 -1.132459,0.646537 -2.087442,0.895954 z m 2.746323,-2.885952 c 0.982109,0.322477 1.092922,-0.0457 2.368826,0.355237 0.191274,0.894374 -0.548987,1.159224 -0.823933,1.738681 -0.583472,-0.30736 -1.235462,-0.4475 -1.955488,-0.38105 0.586699,-0.511127 0.689687,-1.094044 0.410595,-1.712868 z m 10.434901,7.044828 c -0.747167,-1.955988 2.223075,-1.503131 3.185401,-3.032392 0.687847,1.538711 -0.08643,2.716835 -3.185401,3.032702 z m 0.115923,0.21855 c 1.136591,1.772081 3.082413,0.225487 5.174906,1.036734 -0.54392,-1.015634 -1.470856,-1.627521 -2.856201,-1.606421 -0.544388,0.269887 -1.307177,0.465447 -2.318705,0.569687 z m 3.584053,-2.417348 c 0.857965,0.45885 1.08187,0.11558 2.202387,0.694097 -0.09198,0.901934 -0.897517,1.052154 -1.347181,1.577761 -0.474046,-0.385147 -1.067635,-0.617877 -1.79134,-0.658187 0.732435,-0.413177 1.015207,-0.968394 0.936134,-1.613671 z m 5.118813,8.988234 c -0.14943,-2.01961 2.624019,-1.16144 4.020387,-2.52444 0.216108,1.60234 -0.892451,2.64789 -4.020387,2.52444 z m 0.04833,0.22989 c 0.585779,1.89333 2.950926,0.65158 4.757435,1.73744 -0.22989,-1.07043 -0.955902,-1.79885 -2.317332,-1.97143 -0.614278,0.18801 -1.418443,0.27336 -2.440103,0.23399 z m 4.227764,-1.86624 c 0.704389,0.56907 1.025325,0.26391 1.949954,0.98729 -0.358633,0.87014 -1.191764,0.90446 -1.788114,1.35669 -0.349435,-0.44404 -0.861177,-0.75455 -1.55777,-0.89533 0.840037,-0.30169 1.281437,-0.80557 1.39593,-1.44865 z m -16.644345,16.28917 c -1.100266,-4.55413 -0.167826,-8.61634 5.237905,-11.59805 1.963299,6.82599 -4.246145,4.38564 -5.237905,11.59805 z m -12.125545,-7.07636 c -5.983217,-4.4291 -8.102837,-8.97126 -5.094446,-13.662359 -6.76119,4.566389 -4.634664,8.133539 5.094446,13.662359 z m 7.357087,2.70898 c -1.150403,-1.79539 -1.388572,-3.53471 0.380241,-5.15028 1.852952,2.66867 -1.075899,2.11031 -0.380241,5.15028 z m -8.999449,-7.07856 c -1.473149,-2.29895 -1.777996,-4.5261 0.486923,-6.594204 2.372505,3.416294 -1.377987,2.701734 -0.487376,6.594204 z m 6.909701,0.43144 c 0.0073,-1.96103 0.816589,-3.61754 3.388179,-4.60577 0.119574,2.95462 -2.229966,1.63226 -3.388632,4.60609 z M 43.562754,108.056 c -9.002646,-2.50491 -18.133582,-2.44759 -26.834623,-0.0983 -8.5828692,2.31754 -9.2417501,-3.95828 -0.43083,-4.9144 10.085466,-1.09436 18.846731,0.81849 27.265453,5.01266 z M 40.0417,104.7726 c -2.075031,-2.80504 -2.39458,-5.751784 -1.121888,-8.650966 1.256149,-2.858865 -3.083801,-2.824545 -3.394619,0.0548 -0.355873,3.295349 1.303045,6.045906 4.516507,8.596166 z m -5.262739,-3.12248 c 1.961152,0 1.961152,2.01489 0,2.01489 -1.961152,0 -1.961152,-2.01489 0,-2.01489 z m -3.587265,-2.861081 c 3.174481,-0.0312 3.175415,3.245991 9.2e-4,3.215681 -3.08599,-0.0295 -3.086895,-3.185381 -9.2e-4,-3.215681 z m -5.955185,-3.529662 c 4.930766,0 4.930766,5.065853 0,5.065853 -4.930766,0 -4.930766,-5.065853 0,-5.065853 z m 71.297544,22.398053 c 6.634745,-3.72273 10.423395,-8.5965 11.436765,-14.20846 0.99913,-5.536048 8.38149,-3.23711 5.74414,1.84546 -3.01805,5.8176 -8.88081,9.66283 -17.180905,12.363 z m -3.578081,0.94288 c 5.983232,-4.4291 8.102396,-8.97094 5.093541,-13.66206 6.762105,4.56641 4.635585,8.13324 -5.093541,13.66206 z m 24.133836,4.18535 c 4.44615,1.51731 9.10518,1.73209 13.67456,0.76747 4.50776,-0.95201 4.4857,2.26494 -0.0607,2.51688 -5.20342,0.28784 -9.56083,-0.92115 -13.61386,-3.28435 z m 11.91404,4.37368 c 3.64793,-0.004 3.64793,3.7457 0,3.7413 -3.63511,-0.004 -3.63511,-3.73692 0,-3.7413 z m 4.18361,14.43394 c 0.68525,-0.001 0.68525,0.70344 0,0.70228 -0.68186,-0.001 -0.68186,-0.70112 0,-0.70228 z m 0.26898,-2.58333 c 1.28894,0 1.28894,1.32426 0,1.32426 -1.28894,0 -1.28894,-1.32426 0,-1.32426 z m -0.22116,-3.55235 c 2.01729,-0.0423 2.01729,2.05242 0,2.01017 -1.89765,-0.0397 -1.89765,-1.97043 0,-2.01017 z m -1.14534,-3.86381 c 2.72528,-0.002 2.72528,2.79903 0,2.79716 -2.71984,-0.002 -2.71984,-2.7953 0,-2.79716 z m -1.22257,-27.83525 c -5.01353,-0.40122 -2.11365,-3.3593 -5.07055,-5.358748 4.00338,0.205957 6.26186,1.782458 5.07055,5.358748 z m 0.57887,0.009 c 4.82594,-0.13857 2.44148,-3.22168 5.62643,-4.999421 -2.69896,-0.0381 -4.69904,0.592997 -5.50919,2.115971 0.28921,0.76306 0.27036,1.71634 -0.11724,2.88345 z m -3.39186,-5.411658 c 1.60006,-0.650317 0.94027,-1.108524 2.98356,-1.970151 2.03824,0.660387 1.88652,1.632561 2.83046,2.450098 -1.19086,0.276817 -2.10123,0.779434 -2.64608,1.544071 -0.50438,-1.055624 -1.61846,-1.708781 -3.16794,-2.024018 z m 0.89935,11.409718 c -4.1096,-1.63194 -5.12112,-3.57125 -3.579,-6.12623 2.67506,2.39468 3.09207,3.12783 3.579,6.12591 z m 1.66673,0.41097 c 4.73582,-0.24658 6.87797,-1.69177 7.1097,-4.45177 -3.92934,1.35984 -4.76984,1.89616 -7.1097,4.45177 z m -1.7141,3.66132 c 4.40846,1.20931 7.26145,0.55931 9.24635,-1.84798 -4.40156,0.034 -5.50137,0.2617 -9.24635,1.84798 z m -2.41067,-0.88998 c -4.10867,-1.63194 -5.12066,-3.57124 -3.57806,-6.12591 2.67504,2.39405 3.09208,3.12783 3.57806,6.12591 z m 0.0496,3.70005 c 3.51417,2.18779 6.51935,2.26116 9.60683,0.47995 -4.14177,-1.02036 -5.28848,-1.07075 -9.60683,-0.47995 z m -3.00931,-1.53589 c -4.10867,-1.63193 -5.12066,-3.57093 -3.57898,-6.1256 2.6755,2.39438 3.09208,3.12721 3.57898,6.12529 z m -49.438272,22.32281 c 5.58918,-1.72326 7.3212,-5.05926 12.723257,-6.22952 3.751879,-0.81314 8.71805,0.3335 10.345695,4.23133 0.911299,2.18243 0.0603,5.14902 -4.346841,6.12591 -3.929341,0.86983 -7.905592,0.20785 -9.181043,-2.48255 -0.856126,-1.80704 -0.01971,-4.05371 3.590024,-5.1402 -3.429556,1.58659 -3.826821,3.32561 -2.995062,4.97361 1.255683,2.48696 5.008014,2.95147 8.244471,2.17487 4.120163,-0.9895 4.30913,-3.58542 3.569789,-5.49387 -1.090616,-2.81416 -5.024104,-4.0578 -8.936903,-3.34135 -5.410335,0.9895 -8.207684,4.96133 -13.013387,5.18177 z m -29.001153,4.26314 c 0.822108,-4.16015 4.998816,-6.24716 5.099979,-10.12672 0.06993,-2.69512 -2.947714,-5.62991 -8.866575,-5.58991 -3.31461,0.0233 -7.224183,1.42535 -7.337289,4.59695 -0.09972,2.82803 1.958232,5.25074 6.08714,5.32255 2.772062,0.0485 5.679758,-1.14003 6.172652,-3.82004 -1.245113,2.70363 -3.566124,3.45976 -6.109201,3.38229 -3.838325,-0.11715 -5.556096,-2.44917 -5.389642,-4.79473 0.212415,-2.98706 3.792336,-3.84932 6.673824,-3.90695 4.249372,-0.085 7.108786,2.14369 7.219599,4.91723 0.153563,3.83452 -4.608924,6.8008 -3.550487,10.01933 z m 57.054235,-13.33 c -0.76066,-1.66995 -4.41847,-0.82986 -3.555555,0.8166 0.827233,1.57836 4.284745,0.78427 3.555555,-0.8166 z m -14.632313,1.283 c -0.137239,-0.31975 -0.837949,-0.15922 -0.666692,0.15274 0.159081,0.28979 0.794179,0.14429 0.666692,-0.15274 z m 2.39642,-0.68339 c -0.330659,-0.67702 -1.40669,0.80188 -0.418405,0.57506 0.347858,-0.0793 0.535438,-0.33709 0.418405,-0.57506 z m 3.425877,-0.67614 c -0.451182,-0.8393 -2.290147,-0.41742 -1.912257,0.43869 0.435356,0.86119 2.321493,0.4288 1.912257,-0.43838 z m 3.921998,-0.33225 c -0.396637,-0.81162 -2.027845,-0.88939 -2.584979,-0.1234 -0.557148,0.76598 0.515991,1.61101 1.700806,1.33901 0.733954,-0.16867 1.129525,-0.71279 0.88372,-1.21561 z m 63.354238,13.72222 c -3.97855,0 -7.37363,1.71225 -8.70104,4.11922 -2.30123,-13.08639 10.44594,-21.07414 21.84915,-22.1896 26.83002,-2.62364 30.86421,17.90788 50.09118,25.31491 16.7671,6.45942 37.57022,9.3879 55.54289,3.43929 L 279.4,140.51907 c -9.85603,8.64973 -25.67642,10.58525 -36.88606,7.02881 -18.2113,-5.77793 -27.29855,-19.67776 -16.71974,-30.42583 3.88613,-3.94821 11.55907,-5.95113 17.4738,-5.7206 -1.52641,1.04063 -2.38338,2.45546 -2.3808,3.93057 0,3.06674 3.6305,5.55339 8.10792,5.55339 4.47696,0 8.10745,-2.48665 8.10745,-5.55339 0,-4.06064 -5.27286,-5.44253 -7.89136,-5.81414 -9.77187,-1.8549 -19.73088,0.44216 -25.78677,5.49008 -11.82759,9.8603 -7.39615,21.83405 5.16757,30.96718 -16.06501,-4.30502 -23.04137,-25.79265 -49.67415,-25.80178 l 0.0131,-0.003 c -18.44027,0.0176 -29.72809,-4.65049 -30.56582,-16.16572 -0.0561,11.07591 7.7217,16.33295 19.29457,17.52399 -12.74166,3.71863 -24.31176,16.30743 -15.35324,29.53774 1.53016,1.99693 5.2503,3.35206 8.31065,3.35206 5.13355,0 9.2983,-2.85165 9.2983,-6.36841 0,-3.51677 -4.16475,-6.36841 -9.2983,-6.36841 z m 41.22325,-8.18174 c -4.97492,-3.99703 -13.01248,-8.80404 -21.38108,-9.04275 -10.47168,-0.29792 -16.53905,3.7602 -18.512,7.37175 3.24059,-3.775 8.82701,-6.87606 18.42187,-6.58539 8.08538,0.2447 16.06731,4.50343 21.47121,8.25639 z m 28.16616,4.56388 c -3.33805,-3.26986 -6.96072,-8.23906 -5.61401,-12.49873 1.68374,-5.33041 7.20259,-7.60921 11.45655,-7.91154 -4.67238,0.90951 -9.07072,3.12878 -10.59629,8.01673 -1.28418,4.1189 1.75961,8.95394 4.75375,12.39354 z M 201.5212,126.18779 c -2.31872,-1.4707 -5.17445,-2.82172 -7.94882,-4.08992 -4.62455,-2.11409 -8.82425,-4.88827 -10.57054,-8.2715 -3.333,-6.46257 0.0505,-11.46358 4.2457,-13.953687 0.43545,-0.36154 1.08406,-0.570837 1.76834,-0.570637 3.001,0.0411 3.001,3.104384 0,3.145464 -1.60351,-2.4e-4 -2.71289,-1.09757 -2.14905,-2.12574 -3.71693,3.17381 -5.76391,7.50308 -2.79322,13.21424 1.68742,3.2453 5.5262,6.00939 9.82798,8.22237 2.62631,1.35071 5.64114,2.84093 7.61961,4.42941 z m 14.82357,-1.25025 c 0.44187,-1.75066 1.32281,-3.6062 2.21067,-5.38175 1.48097,-2.95714 2.20375,-6.20149 0.88141,-9.00495 -2.647,-5.61259 -8.94196,-7.65992 -13.56744,-7.6722 5.17032,0.63426 10.25007,2.70048 12.65569,7.84981 1.26073,2.69229 0.76692,5.80596 -0.43083,8.71869 -0.73107,1.77775 -1.61385,3.78005 -1.7495,5.4904 z m 9.24772,19.18648 c -0.44369,-9.2e-4 -0.44409,0.45531 -3.9e-4,0.45475 0.44154,-5.5e-4 0.44194,-0.45384 3.9e-4,-0.45475 z m -1.39085,-1.01532 c -0.69675,-0.002 -0.69675,0.715 0,0.7133 0.69181,-0.002 0.69181,-0.71161 0,-0.7133 z m -1.64982,-1.34284 c -1.03498,-0.001 -1.03498,1.06266 0,1.0613 1.031,-0.001 1.031,-1.05994 0,-1.0613 z m -1.99273,-2.02182 c -1.52602,0.0356 -1.52602,1.58655 0,1.62218 1.52601,-0.0356 1.52601,-1.58655 0,-1.62218 z m -2.54769,-2.75779 c -2.14821,-0.002 -2.14783,2.20596 3.8e-4,2.20321 2.14068,-0.003 2.14031,-2.20081 -3.8e-4,-2.20321 z m -3.05069,-4.31132 c -1.32779,3.5e-4 -2.40397,0.7376 -2.40423,1.64705 5e-4,0.90945 1.07689,1.64657 2.40468,1.64675 1.32779,-3.4e-4 2.404,-0.73761 2.40425,-1.64706 -2.5e-4,-0.90957 -1.07673,-1.64689 -2.4047,-1.64706 z m -1.498,-1.10413 c 4.84296,-1.70154 0.28232,-3.93939 2.16837,-6.72459 -3.93211,1.24301 -5.34412,3.42009 -2.16837,6.72459 z m -0.58024,0.15967 c -4.951,1.10853 -4.24202,-2.62301 -8.4408,-3.5955 2.70585,-0.73692 5.07422,-0.61662 6.73222,0.71299 0.12878,0.84463 0.67405,1.80358 1.70858,2.88251 z m 0.44416,-6.34416 c -1.97663,-0.24344 -1.56145,-0.87612 -4.10087,-1.21939 -1.69569,1.19514 -1.00692,2.13834 -1.50947,3.20782 1.35683,-0.028 2.55274,0.24407 3.52381,0.87612 -0.0723,-1.19828 0.69336,-2.14495 2.08653,-2.86455 z m 5.8623,-6.29944 c 0.89842,-1.6669 2.25572,-3.38261 3.59875,-5.01833 2.23918,-2.72472 3.80751,-5.82547 3.24934,-8.74672 -1.11913,-5.848147 -6.7681,-8.642769 -11.31356,-9.228526 4.91744,1.265041 9.36635,3.927716 10.37006,9.290256 0.52646,2.8044 -0.78163,5.80501 -2.73113,8.52092 -1.18902,1.65776 -2.58723,3.51708 -3.17346,5.1824 z m 3.65944,-4.38627 c 1.55226,-1.42315 3.56613,-2.80378 5.53219,-4.1104 3.27828,-2.17613 6.06966,-4.84354 6.74739,-7.75313 1.35546,-5.824202 -2.90035,-9.603911 -7.01545,-11.050662 4.18959,2.170448 7.34925,5.589567 6.08483,10.926582 -0.65841,2.79086 -3.15966,5.41292 -6.15564,7.63692 -1.82766,1.35764 -3.94039,2.86802 -5.19332,4.35069 z m 4.92756,-23.175889 c 1.34074,-1.801361 -1.70214,-1.793801 -2.16468,-3.428572 -1.15224,1.402041 -0.76371,2.666455 2.16468,3.428572 z m -0.18116,0.196507 c -1.66352,1.564541 -3.08196,-0.230837 -5.3786,0.25509 0.84876,-0.912647 1.94537,-1.374954 3.29116,-1.151044 0.44876,0.343267 1.13201,0.646537 2.08744,0.895954 z m -2.74585,-2.885952 c -0.98211,0.322477 -1.09338,-0.0457 -2.36883,0.355237 -0.19127,0.894374 0.54852,1.159224 0.82393,1.738681 0.58302,-0.30736 1.235,-0.4475 1.95549,-0.38105 -0.58715,-0.511127 -0.68969,-1.094044 -0.41059,-1.712868 z m -10.4349,7.044828 c 0.74669,-1.955988 -2.22353,-1.503131 -3.18541,-3.032392 -0.68784,1.538711 0.0864,2.716835 3.18541,3.032702 z m -0.11593,0.21855 c -1.13659,1.772081 -3.08288,0.225487 -5.17492,1.036734 0.54394,-1.015634 1.47087,-1.627521 2.85575,-1.606421 0.54486,0.269887 1.30764,0.465447 2.31917,0.569687 z m -3.58405,-2.417348 c -0.85889,0.45885 -1.08187,0.11558 -2.20331,0.694097 0.0929,0.901934 0.89844,1.052154 1.34765,1.577761 0.4745,-0.385147 1.06717,-0.617877 1.79134,-0.658187 -0.73245,-0.413177 -1.01475,-0.968394 -0.93568,-1.613671 z m -5.11928,8.988234 c 0.14943,-2.01961 -2.62401,-1.16144 -4.01992,-2.52444 -0.21611,1.60234 0.89198,2.64789 4.01992,2.52444 z m -0.0477,0.22989 c -0.58623,1.89333 -2.95138,0.65158 -4.75789,1.73744 0.22989,-1.07043 0.95543,-1.79885 2.31778,-1.97143 0.61383,0.18801 1.41846,0.27336 2.44011,0.23399 z m -4.22822,-1.86624 c -0.70394,0.56907 -1.02532,0.26391 -1.95042,0.98729 0.35863,0.87014 1.1927,0.90446 1.78903,1.35669 0.34945,-0.44404 0.86073,-0.75455 1.55777,-0.89533 -0.84049,-0.30169 -1.28189,-0.80557 -1.39638,-1.44865 z m 16.64434,16.28917 c 1.10074,-4.55413 0.16783,-8.61634 -5.2379,-11.59805 -1.9633,6.82599 4.24568,4.38564 5.2379,11.59805 z m 12.12554,-7.07636 c 5.98368,-4.4291 8.10331,-8.97126 5.09446,-13.662359 6.76119,4.566389 4.63511,8.133539 -5.09446,13.662359 z m -7.35661,2.70898 c 1.15039,-1.79539 1.38856,-3.53471 -0.38026,-5.15028 -1.85385,2.66867 1.07592,2.11031 0.38026,5.15028 z m 8.99944,-7.07856 c 1.47269,-2.29895 1.77799,-4.5261 -0.48693,-6.594204 -2.37296,3.416294 1.37846,2.701734 0.48693,6.594204 z m -6.90971,0.43144 c -0.007,-1.96103 -0.81659,-3.61754 -3.38864,-4.60577 -0.11958,2.95462 2.22998,1.63226 3.38864,4.60609 z m 11.01607,1.74815 c 9.00174,-2.50491 18.13313,-2.44759 26.83417,-0.0983 8.58287,2.31754 9.24175,-3.95828 0.43036,-4.9144 -10.08499,-1.09436 -18.84626,0.81849 -27.26453,5.01266 z m 3.5206,-3.2834 c 2.07595,-2.80504 2.39458,-5.751784 1.12189,-8.650966 -1.25615,-2.858865 3.08425,-2.824545 3.39507,0.0548 0.35542,3.295349 -1.3035,6.045906 -4.51696,8.596166 z m 5.26227,-3.12248 c -1.99601,-0.0243 -1.99601,2.03888 0,2.01457 1.92629,-0.0235 1.92629,-1.99111 0,-2.01457 z m 3.58774,-2.861081 c -3.1751,-0.0307 -3.1751,3.247051 0,3.216311 3.0866,-0.0299 3.0866,-3.186431 0,-3.216311 z m 5.95518,-3.529662 c -4.93076,1.7e-4 -4.93038,5.066023 3.8e-4,5.065853 4.93077,-1.7e-4 4.93039,-5.066023 -3.8e-4,-5.065853 z m -71.29709,22.398053 c -6.63474,-3.72273 -10.42386,-8.5965 -11.43723,-14.20846 -0.99912,-5.536048 -8.38194,-3.23711 -5.74413,1.84546 3.01805,5.8176 8.88127,9.66283 17.18136,12.363 z m 3.57809,0.94288 c -5.98324,-4.4291 -8.10332,-8.97094 -5.09355,-13.66206 -6.76211,4.56641 -4.63603,8.13324 5.09355,13.66206 z m -24.13384,4.18535 c -4.44707,1.51731 -9.10519,1.73209 -13.67456,0.76747 -4.50778,-0.95201 -4.48662,2.26494 0.0597,2.51688 5.20433,0.28784 9.56175,-0.92115 13.61478,-3.28435 z m -11.91449,4.37368 c -3.64793,-0.004 -3.64793,3.7457 0,3.7413 3.63511,-0.004 3.63511,-3.73692 0,-3.7413 z m -4.18362,14.43394 c -0.68459,-5.6e-4 -0.6838,0.70324 7.8e-4,0.70197 0.68192,-0.001 0.68114,-0.70141 -7.8e-4,-0.70197 z m -0.26897,-2.58333 c -0.53388,-1.7e-4 -0.96672,0.2963 -0.96647,0.66197 -0.003,0.88468 1.93594,0.88468 1.93294,0 0,-0.36562 -0.43265,-0.66197 -0.96647,-0.66197 z m 0.22161,-3.55235 c -2.01729,-0.0423 -2.01729,2.05242 0,2.01017 1.89764,-0.0397 1.89764,-1.97043 0,-2.01017 z m 1.14487,-3.86381 c -2.7259,-0.002 -2.7259,2.79966 0,2.79779 2.72045,-0.002 2.72045,-2.79593 0,-2.79779 z m 1.22304,-27.83525 c 5.01353,-0.40122 2.11365,-3.3593 5.07054,-5.358748 -4.00383,0.205957 -6.26185,1.782458 -5.07054,5.358748 z m -0.57933,0.009 c -4.82548,-0.13857 -2.44147,-3.22168 -5.62689,-4.999421 2.69941,-0.0381 4.69904,0.592997 5.51011,2.115971 -0.28921,0.76306 -0.27036,1.71634 0.1168,2.88345 z m 3.39186,-5.411658 c -1.5996,-0.650317 -0.93981,-1.108524 -2.9831,-1.970151 -2.03916,0.660387 -1.88697,1.632561 -2.83046,2.450098 1.19084,0.276817 2.10123,0.779434 2.64607,1.544071 0.50394,-1.055624 1.61755,-1.708781 3.16749,-2.024018 z M 150.4469,109.7656 c 4.10867,-1.63194 5.12112,-3.57125 3.57899,-6.12623 -2.67505,2.39468 -3.09206,3.12783 -3.57899,6.12591 z m -1.66673,0.41097 c -4.73582,-0.24658 -6.87797,-1.69177 -7.11017,-4.45177 3.92889,1.35984 4.76939,1.89616 7.11017,4.45177 z m 1.71409,3.66132 c -4.40937,1.20931 -7.26236,0.55931 -9.24634,-1.84798 4.40156,0.034 5.50137,0.2617 9.24634,1.84798 z m 2.40975,-0.88998 c 4.10868,-1.63194 5.12158,-3.57124 3.57899,-6.12591 -2.67504,2.39405 -3.09208,3.12783 -3.57899,6.12591 z m -0.0488,3.70005 c -3.51463,2.18779 -6.51934,2.26116 -9.60682,0.47995 4.14132,-1.02036 5.28848,-1.07075 9.60682,-0.47995 z m 3.00931,-1.53589 c 4.10867,-1.63193 5.12067,-3.57093 3.57854,-6.1256 -2.67505,2.39438 -3.09163,3.12721 -3.57854,6.12529 z m 49.43829,22.32281 c -5.5892,-1.72326 -7.32168,-5.05926 -12.72327,-6.22952 -3.75188,-0.81314 -8.71897,0.3335 -10.34569,4.23133 -0.9113,2.18243 -0.0603,5.14902 4.34637,6.12591 3.92889,0.86983 7.90606,0.20785 9.18198,-2.48255 0.8552,-1.80704 0.0193,-4.05371 -3.59096,-5.1402 3.43002,1.58659 3.82729,3.32561 2.99553,4.97361 -1.25614,2.48696 -5.00894,2.95147 -8.24493,2.17487 -4.11971,-0.9895 -4.30867,-3.58542 -3.56933,-5.49387 1.08969,-2.81416 5.02318,-4.0578 8.9369,-3.34135 5.41033,0.9895 8.20723,4.96133 13.0134,5.18177 z m 29.00114,4.26314 c -0.8221,-4.16015 -4.99882,-6.24716 -5.09997,-10.12672 -0.0699,-2.69512 2.94723,-5.62991 8.86564,-5.58991 3.31506,0.0233 7.22511,1.42535 7.33776,4.59695 0.0997,2.82803 -1.95823,5.25074 -6.08714,5.32255 -2.77206,0.0485 -5.67976,-1.14003 -6.17265,-3.82004 1.24509,2.70363 3.56611,3.45976 6.1092,3.38229 3.83831,-0.11715 5.55608,-2.44917 5.38964,-4.79473 -0.21196,-2.98706 -3.79234,-3.84932 -6.67337,-3.90695 -4.24983,-0.085 -7.10924,2.14369 -7.22005,4.91723 -0.15311,3.83452 4.60891,6.8008 3.55094,10.01933 z M 177.2484,128.3682 c 0.32962,-0.67242 1.39241,-1.03469 2.37434,-0.80935 1.58363,0.36401 1.7341,1.85752 0.23882,2.36722 -1.49529,0.5097 -3.14407,-0.47307 -2.61316,-1.55787 z m 14.63322,1.28301 c 0.1422,-0.31402 0.83005,-0.15579 0.66669,0.15336 -0.15594,0.29511 -0.80244,0.14639 -0.66669,-0.15336 z m -2.39642,-0.68339 c 0.11577,-0.23809 0.49182,-0.36653 0.83911,-0.28658 0.98766,0.22632 -1.16954,0.96306 -0.83911,0.28658 z m -3.42633,-0.67615 c 0.42509,-0.876 2.34352,-0.43599 1.91271,0.4387 -0.42889,0.87078 -2.33592,0.43339 -1.91271,-0.4387 z m -3.92108,-0.33224 c 0.55537,-1.26654 3.33027,-0.62861 2.65757,0.61095 -0.63092,1.16256 -3.17844,0.57691 -2.65757,-0.61095 z"
       id="path839-0"
       sodipodi:nodetypes="ccccccccccssccccccccssccccccccccccccccscccccccccccssssssssscccssscccccccccccccccccccccccccccccccccccccccccccccccccccccccccccccccccccccccccccccccccccccccccccccccsssssssssccccccccccccsssssssssssssssccccccccccccccccccccccccccccccccccccccccccccccccccccccssssssccccccccscccccccccccccssccccccccsscccccccccccccccccccccccccccccssssssssscccsssccccccccccccccccccccccccccccccccccccccccccccccccccccccccccccccccccccccccccccccccccccccccccccccsssssssssccccccccccccssssssccccsssssscccccccccccccccccccccccccccccccccccccccccccccccccccscccccscssscccssssss" />
  </g>
</svg>
