<svg width="33" height="33" version="1.1" viewBox="0 0 8.7312 8.7313" xmlns="http://www.w3.org/2000/svg"><g transform="translate(0 -288.27)"><rect y="288.27" width="8.7312" height="8.7313" rx="1.0583" ry="1.0583" fill="#fefefe"/><rect x="1.0583" y="289.06" width="1.5875" height=".79375" ry=".39687" fill="#fbc2b7"/><rect x="2.9104" y="289.06" width="2.3812" height=".79376" ry=".39687" fill="#e7998a"/><rect x="1.3229" y="290.12" width="1.5875" height=".79375" ry=".39687" fill="#f68656"/><rect x="1.8521" y="292.24" width="1.3229" height=".79375" ry=".39098" fill="#dc55a5"/><rect x="1.3229" y="293.3" width="2.1167" height=".79377" ry=".38853" fill="#dc55a5"/><g fill="#f68656"><rect x=".79375" y="295.41" width="1.5875" height=".79375" ry=".39687"/><rect x="1.3229" y="294.35" width="1.3229" height=".79378" ry=".39687"/><rect x="1.3229" y="291.18" width="1.5875" height=".79375" ry=".39687"/></g><g fill="#7bc5d1"><rect x="2.6458" y="295.41" width="2.3812" height=".79376" ry=".39687"/><rect x="4.2333" y="294.35" width="2.1167" height=".79376" ry=".39687"/><rect x="6.35" y="293.3" width=".79375" height=".79378" ry=".37916"/><rect x="4.7625" y="292.24" width="2.3812" height=".79376" ry=".39687"/><rect x="4.7625" y="291.18" width="2.3812" height=".79376" ry=".39687"/><rect x="5.0271" y="290.12" width="2.3812" height=".79376" ry=".39687"/></g><g fill="#cdccca"><rect x="3.4396" y="290.12" width="1.3229" height=".79372" ry=".39098"/><rect x="3.175" y="291.18" width="1.3229" height=".79372" ry=".39098"/><rect x="3.4396" y="292.24" width="1.0583" height=".79376" ry=".37915"/><rect x="2.9104" y="294.35" width="1.0583" height=".79372" ry=".38505"/></g><rect x="5.2917" y="293.3" width=".79375" height=".79378" ry=".37916" fill="#7bc5d1"/><rect x="3.7042" y="293.3" width="1.3229" height=".79377" ry=".37915" fill="#cdccca"/></g></svg>
