<?xml version="1.0" encoding="UTF-8" standalone="no"?>
<svg
   xmlns:dc="http://purl.org/dc/elements/1.1/"
   xmlns:cc="http://creativecommons.org/ns#"
   xmlns:rdf="http://www.w3.org/1999/02/22-rdf-syntax-ns#"
   xmlns:svg="http://www.w3.org/2000/svg"
   xmlns="http://www.w3.org/2000/svg"
   xmlns:xlink="http://www.w3.org/1999/xlink"
   xmlns:sodipodi="http://sodipodi.sourceforge.net/DTD/sodipodi-0.dtd"
   xmlns:inkscape="http://www.inkscape.org/namespaces/inkscape"
   width="352.43799"
   height="33"
   version="1.1"
   viewBox="0 0 93.248686 8.7313"
   id="svg52"
   sodipodi:docname="logomark.svg"
   inkscape:version="0.92.3 (2405546, 2018-03-11)">
  <metadata
     id="metadata58">
    <rdf:RDF>
      <cc:Work
         rdf:about="">
        <dc:format>image/svg+xml</dc:format>
        <dc:type
           rdf:resource="http://purl.org/dc/dcmitype/StillImage" />
        <dc:title></dc:title>
      </cc:Work>
    </rdf:RDF>
  </metadata>
  <defs
     id="defs56">
    <linearGradient
       inkscape:collect="always"
       id="linearGradient908">
      <stop
         style="stop-color:#57efec;stop-opacity:1"
         offset="0"
         id="stop904" />
      <stop
         id="stop912"
         offset="0.5"
         style="stop-color:#e85e90;stop-opacity:1" />
      <stop
         style="stop-color:#fcc9ba;stop-opacity:1"
         offset="1"
         id="stop906" />
    </linearGradient>
    <linearGradient
       inkscape:collect="always"
       xlink:href="#linearGradient908"
       id="linearGradient910"
       x1="8.4933718"
       y1="7.2839683"
       x2="92.789794"
       y2="7.2839683"
       gradientUnits="userSpaceOnUse"
       gradientTransform="translate(0,-0.5291697)" />
    <linearGradient
       inkscape:collect="always"
       xlink:href="#linearGradient908"
       id="linearGradient956"
       x1="8.604352"
       y1="4.5966325"
       x2="92.56842"
       y2="4.5966325"
       gradientUnits="userSpaceOnUse" />
    <linearGradient
       inkscape:collect="always"
       xlink:href="#linearGradient908"
       id="linearGradient958"
       gradientUnits="userSpaceOnUse"
       x1="8.604352"
       y1="4.5966325"
       x2="92.56842"
       y2="4.5966325" />
    <linearGradient
       inkscape:collect="always"
       xlink:href="#linearGradient908"
       id="linearGradient960"
       gradientUnits="userSpaceOnUse"
       x1="8.604352"
       y1="4.5966325"
       x2="92.56842"
       y2="4.5966325" />
    <linearGradient
       inkscape:collect="always"
       xlink:href="#linearGradient908"
       id="linearGradient962"
       gradientUnits="userSpaceOnUse"
       x1="8.604352"
       y1="4.5966325"
       x2="92.56842"
       y2="4.5966325" />
    <linearGradient
       inkscape:collect="always"
       xlink:href="#linearGradient908"
       id="linearGradient964"
       gradientUnits="userSpaceOnUse"
       x1="8.604352"
       y1="4.5966325"
       x2="92.56842"
       y2="4.5966325" />
    <linearGradient
       inkscape:collect="always"
       xlink:href="#linearGradient908"
       id="linearGradient966"
       gradientUnits="userSpaceOnUse"
       x1="8.604352"
       y1="4.5966325"
       x2="92.56842"
       y2="4.5966325" />
    <linearGradient
       inkscape:collect="always"
       xlink:href="#linearGradient908"
       id="linearGradient968"
       gradientUnits="userSpaceOnUse"
       x1="8.604352"
       y1="4.5966325"
       x2="92.56842"
       y2="4.5966325" />
    <linearGradient
       inkscape:collect="always"
       xlink:href="#linearGradient908"
       id="linearGradient970"
       gradientUnits="userSpaceOnUse"
       x1="8.604352"
       y1="4.5966325"
       x2="92.56842"
       y2="4.5966325" />
    <linearGradient
       inkscape:collect="always"
       xlink:href="#linearGradient908"
       id="linearGradient972"
       gradientUnits="userSpaceOnUse"
       x1="8.604352"
       y1="4.5966325"
       x2="92.56842"
       y2="4.5966325" />
    <linearGradient
       inkscape:collect="always"
       xlink:href="#linearGradient908"
       id="linearGradient974"
       gradientUnits="userSpaceOnUse"
       x1="8.604352"
       y1="4.5966325"
       x2="92.56842"
       y2="4.5966325" />
    <linearGradient
       inkscape:collect="always"
       xlink:href="#linearGradient908"
       id="linearGradient976"
       gradientUnits="userSpaceOnUse"
       x1="8.604352"
       y1="4.5966325"
       x2="92.56842"
       y2="4.5966325" />
    <linearGradient
       inkscape:collect="always"
       xlink:href="#linearGradient908"
       id="linearGradient978"
       gradientUnits="userSpaceOnUse"
       x1="8.604352"
       y1="4.5966325"
       x2="92.56842"
       y2="4.5966325" />
    <linearGradient
       inkscape:collect="always"
       xlink:href="#linearGradient908"
       id="linearGradient980"
       gradientUnits="userSpaceOnUse"
       x1="8.604352"
       y1="4.5966325"
       x2="92.56842"
       y2="4.5966325" />
    <linearGradient
       inkscape:collect="always"
       xlink:href="#linearGradient908"
       id="linearGradient982"
       gradientUnits="userSpaceOnUse"
       x1="8.604352"
       y1="4.5966325"
       x2="92.56842"
       y2="4.5966325" />
    <linearGradient
       inkscape:collect="always"
       xlink:href="#linearGradient908"
       id="linearGradient984"
       gradientUnits="userSpaceOnUse"
       x1="8.604352"
       y1="4.5966325"
       x2="92.56842"
       y2="4.5966325" />
    <linearGradient
       inkscape:collect="always"
       xlink:href="#linearGradient908"
       id="linearGradient986"
       gradientUnits="userSpaceOnUse"
       x1="8.604352"
       y1="4.5966325"
       x2="92.56842"
       y2="4.5966325" />
    <linearGradient
       inkscape:collect="always"
       xlink:href="#linearGradient908"
       id="linearGradient988"
       gradientUnits="userSpaceOnUse"
       x1="8.604352"
       y1="4.5966325"
       x2="92.56842"
       y2="4.5966325" />
    <linearGradient
       inkscape:collect="always"
       xlink:href="#linearGradient908"
       id="linearGradient990"
       gradientUnits="userSpaceOnUse"
       x1="8.604352"
       y1="4.5966325"
       x2="92.56842"
       y2="4.5966325" />
  </defs>
  <sodipodi:namedview
     pagecolor="#ffffff"
     bordercolor="#666666"
     borderopacity="1"
     objecttolerance="10"
     gridtolerance="10"
     guidetolerance="10"
     inkscape:pageopacity="0"
     inkscape:pageshadow="2"
     inkscape:window-width="1920"
     inkscape:window-height="1017"
     id="namedview54"
     showgrid="true"
     inkscape:zoom="3.5757576"
     inkscape:cx="182.34144"
     inkscape:cy="-3.8589659"
     inkscape:window-x="-8"
     inkscape:window-y="-8"
     inkscape:window-maximized="1"
     inkscape:current-layer="svg52"
     inkscape:snap-bbox="true"
     inkscape:snap-bbox-edge-midpoints="true"
     inkscape:snap-bbox-midpoints="true"
     inkscape:bbox-nodes="true">
    <inkscape:grid
       type="xygrid"
       id="grid838"
       empspacing="3"
       enabled="false" />
  </sodipodi:namedview>
  <path
     inkscape:connector-curvature="0"
     d="m 8.3397107,7.1802937 v -0.85099 H 92.789794 v 0.85099 z"
     style="font-style:normal;font-variant:normal;font-weight:bold;font-stretch:normal;font-size:7.46482038px;line-height:1.25;font-family:'JetBrains Mono';-inkscape-font-specification:'JetBrains Mono, Bold';font-variant-ligatures:normal;font-variant-caps:normal;font-variant-numeric:normal;font-feature-settings:normal;text-align:start;letter-spacing:0px;word-spacing:0px;writing-mode:lr-tb;text-anchor:start;fill:url(#linearGradient910);fill-opacity:1;stroke:none;stroke-width:0.1866194"
     id="path854-3"
     sodipodi:nodetypes="ccccc" />
  <g
     id="g948"
     style="font-style:normal;font-variant:normal;font-weight:bold;font-stretch:normal;font-size:7.46482038px;line-height:1.25;font-family:'JetBrains Mono';-inkscape-font-specification:'JetBrains Mono, Bold';font-variant-ligatures:normal;font-variant-caps:normal;font-variant-numeric:normal;font-feature-settings:normal;text-align:start;letter-spacing:0px;word-spacing:0px;writing-mode:lr-tb;text-anchor:start;fill:url(#linearGradient956);fill-opacity:1;stroke:none;stroke-width:0.1866194"
     aria-label="Dinner Coding Time"
     transform="translate(-0.26458485)">
    <path
       id="path914"
       style="font-style:normal;font-variant:normal;font-weight:bold;font-stretch:normal;font-size:7.46482038px;font-family:'JetBrains Mono';-inkscape-font-specification:'JetBrains Mono, Bold';font-variant-ligatures:normal;font-variant-caps:normal;font-variant-numeric:normal;font-feature-settings:normal;text-align:start;writing-mode:lr-tb;text-anchor:start;fill:url(#linearGradient958);fill-opacity:1;stroke-width:0.1866194"
       d="m 8.6042956,6.8584733 5.67e-5,-5.4493189 h 1.6198657 c 0.368265,0 0.686764,0.069672 0.955497,0.209015 0.27371,0.1393433 0.485213,0.3359169 0.63451,0.5897208 0.149297,0.2538039 0.223945,0.554885 0.223945,0.9032433 v 2.0378959 c 0,0.3433817 -0.07465,0.6444628 -0.223945,0.9032433 -0.149297,0.2538039 -0.3608,0.4528657 -0.63451,0.5971856 -0.268733,0.1393433 -0.587232,0.209015 -0.955497,0.209015 z M 9.5374549,6.000019 h 0.6867631 c 0.268734,0 0.482726,-0.074648 0.641975,-0.2239447 0.159249,-0.1542729 0.238874,-0.3632879 0.238874,-0.6270449 V 3.1111335 c 0,-0.2587805 -0.07963,-0.4628189 -0.238874,-0.6121153 C 10.706944,2.3447453 10.492952,2.2676088 10.224218,2.2676088 H 9.5374549 Z"
       inkscape:connector-curvature="0"
       sodipodi:nodetypes="ccscsssccsccscsscscc" />
    <path
       id="path916"
       style="font-style:normal;font-variant:normal;font-weight:bold;font-stretch:normal;font-size:7.46482038px;font-family:'JetBrains Mono';-inkscape-font-specification:'JetBrains Mono, Bold';font-variant-ligatures:normal;font-variant-caps:normal;font-variant-numeric:normal;font-feature-settings:normal;text-align:start;writing-mode:lr-tb;text-anchor:start;fill:url(#linearGradient960);fill-opacity:1;stroke-width:0.1866194"
       d="M 13.087794,6.8584733 V 6.0074838 h 1.433245 V 3.5963468 H 13.274414 V 2.7528221 h 2.142404 v 3.2546617 h 1.269019 V 6.8584733 Z M 14.89428,2.0660586 q -0.283663,0 -0.447889,-0.1418316 -0.164226,-0.1492964 -0.164226,-0.3956355 0,-0.246339 0.164226,-0.3881706 0.164226,-0.14929642 0.447889,-0.14929642 0.283663,0 0.447889,0.14929642 0.164226,0.1418316 0.164226,0.3881706 0,0.2463391 -0.164226,0.3956355 -0.164226,0.1418316 -0.447889,0.1418316 z"
       inkscape:connector-curvature="0" />
    <path
       id="path918"
       style="font-style:normal;font-variant:normal;font-weight:bold;font-stretch:normal;font-size:7.46482038px;font-family:'JetBrains Mono';-inkscape-font-specification:'JetBrains Mono, Bold';font-variant-ligatures:normal;font-variant-caps:normal;font-variant-numeric:normal;font-feature-settings:normal;text-align:start;writing-mode:lr-tb;text-anchor:start;fill:url(#linearGradient962);fill-opacity:1;stroke-width:0.1866194"
       d="M 17.571235,6.8584733 V 2.7528221 h 0.910708 v 0.7838061 h 0.253804 L 18.481943,3.753108 q 0,-0.5076078 0.291128,-0.7912709 0.298593,-0.2836632 0.813665,-0.2836632 0.604651,0 0.962962,0.4031003 0.365776,0.4031003 0.365776,1.0823989 V 6.8584733 H 19.982372 V 4.2607158 q 0,-0.373241 -0.194085,-0.5747912 -0.194086,-0.2015501 -0.544932,-0.2015501 -0.343382,0 -0.544932,0.209015 -0.194086,0.2090149 -0.194086,0.5971856 v 2.5678982 z"
       inkscape:connector-curvature="0" />
    <path
       id="path920"
       style="font-style:normal;font-variant:normal;font-weight:bold;font-stretch:normal;font-size:7.46482038px;font-family:'JetBrains Mono';-inkscape-font-specification:'JetBrains Mono, Bold';font-variant-ligatures:normal;font-variant-caps:normal;font-variant-numeric:normal;font-feature-settings:normal;text-align:start;writing-mode:lr-tb;text-anchor:start;fill:url(#linearGradient964);fill-opacity:1;stroke-width:0.1866194"
       d="M 22.047211,6.8584733 V 2.7528221 h 0.910708 v 0.7838061 h 0.253804 L 22.957919,3.753108 q 0,-0.5076078 0.291128,-0.7912709 0.298593,-0.2836632 0.813665,-0.2836632 0.604651,0 0.962962,0.4031003 0.365776,0.4031003 0.365776,1.0823989 V 6.8584733 H 24.458348 V 4.2607158 q 0,-0.373241 -0.194085,-0.5747912 -0.194086,-0.2015501 -0.544932,-0.2015501 -0.343382,0 -0.544932,0.209015 -0.194086,0.2090149 -0.194086,0.5971856 v 2.5678982 z"
       inkscape:connector-curvature="0" />
    <path
       id="path922"
       style="font-style:normal;font-variant:normal;font-weight:bold;font-stretch:normal;font-size:7.46482038px;font-family:'JetBrains Mono';-inkscape-font-specification:'JetBrains Mono, Bold';font-variant-ligatures:normal;font-variant-caps:normal;font-variant-numeric:normal;font-feature-settings:normal;text-align:start;writing-mode:lr-tb;text-anchor:start;fill:url(#linearGradient966);fill-opacity:1;stroke-width:0.1866194"
       d="m 28.195308,6.9331215 q -0.522538,0 -0.910708,-0.2015501 Q 26.896429,6.5300212 26.679949,6.1717098 26.470934,5.8059336 26.470934,5.3207203 V 4.2905751 q 0,-0.4852133 0.209015,-0.8435247 0.21648,-0.3657762 0.604651,-0.5673264 0.38817,-0.2015501 0.910708,-0.2015501 0.515072,0 0.895778,0.2015501 0.388171,0.2015502 0.597186,0.5673264 0.216479,0.3583114 0.216479,0.8435247 v 0.7390172 h -2.530574 v 0.291128 q 0,0.4329596 0.209015,0.6569042 0.209015,0.2164798 0.61958,0.2164798 0.313523,0 0.507608,-0.1045075 0.194086,-0.1119723 0.246339,-0.3209873 h 0.918173 Q 29.770385,6.2986118 29.307566,6.619599 28.852212,6.9331215 28.195308,6.9331215 Z m 0.8062,-2.4260666 V 4.2831103 q 0,-0.4254948 -0.20155,-0.6494394 -0.20155,-0.2314094 -0.60465,-0.2314094 -0.403101,0 -0.612116,0.2314094 -0.209015,0.2314094 -0.209015,0.6569042 v 0.1567612 l 1.694515,-0.01493 z"
       inkscape:connector-curvature="0" />
    <path
       id="path924"
       style="font-style:normal;font-variant:normal;font-weight:bold;font-stretch:normal;font-size:7.46482038px;font-family:'JetBrains Mono';-inkscape-font-specification:'JetBrains Mono, Bold';font-variant-ligatures:normal;font-variant-caps:normal;font-variant-numeric:normal;font-feature-settings:normal;text-align:start;writing-mode:lr-tb;text-anchor:start;fill:url(#linearGradient968);fill-opacity:1;stroke-width:0.1866194"
       d="m 32.671285,6.9331215 q -0.522538,0 -0.910709,-0.2015501 Q 31.372406,6.5300212 31.155926,6.1717098 30.946911,5.8059336 30.946911,5.3207203 V 4.2905751 q 0,-0.4852133 0.209015,-0.8435247 0.21648,-0.3657762 0.60465,-0.5673264 0.388171,-0.2015501 0.910709,-0.2015501 0.515072,0 0.895778,0.2015501 0.388171,0.2015502 0.597186,0.5673264 0.216479,0.3583114 0.216479,0.8435247 v 0.7390172 h -2.530574 v 0.291128 q 0,0.4329596 0.209015,0.6569042 0.209015,0.2164798 0.61958,0.2164798 0.313523,0 0.507608,-0.1045075 0.194085,-0.1119723 0.246339,-0.3209873 h 0.918173 Q 34.246362,6.2986118 33.783543,6.619599 33.328189,6.9331215 32.671285,6.9331215 Z m 0.8062,-2.4260666 V 4.2831103 q 0,-0.4254948 -0.20155,-0.6494394 -0.20155,-0.2314094 -0.60465,-0.2314094 -0.403101,0 -0.612116,0.2314094 -0.209015,0.2314094 -0.209015,0.6569042 v 0.1567612 l 1.694515,-0.01493 z"
       inkscape:connector-curvature="0" />
    <path
       id="path926"
       style="font-style:normal;font-variant:normal;font-weight:bold;font-stretch:normal;font-size:7.46482038px;font-family:'JetBrains Mono';-inkscape-font-specification:'JetBrains Mono, Bold';font-variant-ligatures:normal;font-variant-caps:normal;font-variant-numeric:normal;font-feature-settings:normal;text-align:start;writing-mode:lr-tb;text-anchor:start;fill:url(#linearGradient970);fill-opacity:1;stroke-width:0.1866194"
       d="M 35.47514,6.8584733 V 2.7528221 h 0.910708 v 0.7838061 h 0.253804 L 36.385848,3.753108 q 0,-0.5076078 0.291128,-0.7912709 0.298593,-0.2836632 0.813665,-0.2836632 0.604651,0 0.962962,0.4031003 0.365776,0.4031003 0.365776,1.0823989 V 6.8584733 H 37.886277 V 4.2607158 q 0,-0.373241 -0.194086,-0.5747912 -0.194085,-0.2015501 -0.544931,-0.2015501 -0.343382,0 -0.544932,0.209015 -0.194086,0.2090149 -0.194086,0.5971856 v 2.5678982 z"
       inkscape:connector-curvature="0" />
    <path
       id="path928"
       style="font-style:normal;font-variant:normal;font-weight:bold;font-stretch:normal;font-size:7.46482038px;font-family:'JetBrains Mono';-inkscape-font-specification:'JetBrains Mono, Bold';font-variant-ligatures:normal;font-variant-caps:normal;font-variant-numeric:normal;font-feature-settings:normal;text-align:start;writing-mode:lr-tb;text-anchor:start;fill:url(#linearGradient972);fill-opacity:1;stroke-width:0.1866194"
       d="m 46.121608,6.9331215 q -0.522537,0 -0.918173,-0.1940853 Q 44.815264,6.537486 44.598785,6.1791746 44.38977,5.8133984 44.38977,5.3207203 V 2.9469074 q 0,-0.5001429 0.209015,-0.8584543 0.216479,-0.3583114 0.60465,-0.5523967 0.395636,-0.2015502 0.918173,-0.2015502 0.530002,0 0.910708,0.2015502 0.388171,0.1940853 0.60465,0.5523967 0.21648,0.3583114 0.21648,0.8584543 h -0.940567 q 0,-0.3881706 -0.209015,-0.5897208 -0.209015,-0.2015501 -0.582256,-0.2015501 -0.380706,0 -0.589721,0.2015501 -0.209015,0.2015502 -0.209015,0.582256 v 2.3812777 q 0,0.3807058 0.209015,0.5897208 0.209015,0.2015502 0.589721,0.2015502 0.373241,0 0.582256,-0.2015502 0.209015,-0.209015 0.209015,-0.5897208 h 0.940567 q 0,0.4852133 -0.21648,0.8509895 -0.216479,0.3657762 -0.60465,0.5673264 -0.380706,0.1940853 -0.910708,0.1940853 z"
       inkscape:connector-curvature="0" />
    <path
       id="path930"
       style="font-style:normal;font-variant:normal;font-weight:bold;font-stretch:normal;font-size:7.46482038px;font-family:'JetBrains Mono';-inkscape-font-specification:'JetBrains Mono, Bold';font-variant-ligatures:normal;font-variant-caps:normal;font-variant-numeric:normal;font-feature-settings:normal;text-align:start;writing-mode:lr-tb;text-anchor:start;fill:url(#linearGradient974);fill-opacity:1;stroke-width:0.1866194"
       d="m 50.567724,6.9256567 q -0.522538,0 -0.910708,-0.1940853 Q 49.27631,6.5300212 49.05983,6.1717098 48.850815,5.8059336 48.850815,5.3132555 V 4.2980399 q 0,-0.4926781 0.209015,-0.8509895 0.21648,-0.3657762 0.597186,-0.5598615 0.38817,-0.2015502 0.910708,-0.2015502 0.530002,0 0.910708,0.2015502 0.380706,0.1940853 0.589721,0.5598615 0.216479,0.3583114 0.216479,0.8435247 v 1.0226804 q 0,0.4926781 -0.216479,0.8584543 -0.209015,0.3583114 -0.589721,0.5598616 -0.380706,0.1940853 -0.910708,0.1940853 z m 0,-0.8136654 q 0.373241,0 0.574791,-0.2015502 0.209015,-0.209015 0.209015,-0.5971856 V 4.2980399 q 0,-0.3956355 -0.209015,-0.5971856 -0.20155,-0.2015502 -0.574791,-0.2015502 -0.365776,0 -0.574791,0.2015502 -0.209015,0.2015501 -0.209015,0.5971856 v 1.0152156 q 0,0.3881706 0.209015,0.5971856 0.209015,0.2015502 0.574791,0.2015502 z"
       inkscape:connector-curvature="0" />
    <path
       id="path932"
       style="font-style:normal;font-variant:normal;font-weight:bold;font-stretch:normal;font-size:7.46482038px;font-family:'JetBrains Mono';-inkscape-font-specification:'JetBrains Mono, Bold';font-variant-ligatures:normal;font-variant-caps:normal;font-variant-numeric:normal;font-feature-settings:normal;text-align:start;writing-mode:lr-tb;text-anchor:start;fill:url(#linearGradient976);fill-opacity:1;stroke-width:0.1866194"
       d="m 54.692856,6.9331215 q -0.612115,0 -0.992821,-0.4254948 Q 53.326794,6.082132 53.326794,5.3655092 V 4.253251 q 0,-0.7240876 0.373241,-1.1495824 0.373241,-0.4254947 0.992821,-0.4254947 0.507608,0 0.806201,0.291128 0.298592,0.2836632 0.298592,0.7838061 L 55.588634,3.5366282 h 0.21648 L 55.775255,2.5587368 V 1.4091544 h 0.933103 V 6.8584733 H 55.797649 V 6.0746672 h -0.209015 l 0.209015,-0.2164798 q 0,0.5001429 -0.298592,0.7912709 -0.298593,0.2836632 -0.806201,0.2836632 z m 0.328452,-0.8062006 q 0.358311,0 0.552397,-0.209015 0.20155,-0.2164798 0.20155,-0.5971856 V 4.2905751 q 0,-0.3807059 -0.20155,-0.5897208 -0.194086,-0.2164798 -0.552397,-0.2164798 -0.358311,0 -0.559861,0.209015 -0.201551,0.2090149 -0.201551,0.5971856 v 1.0301452 q 0,0.3881707 0.201551,0.5971856 0.20155,0.209015 0.559861,0.209015 z"
       inkscape:connector-curvature="0" />
    <path
       id="path934"
       style="font-style:normal;font-variant:normal;font-weight:bold;font-stretch:normal;font-size:7.46482038px;font-family:'JetBrains Mono';-inkscape-font-specification:'JetBrains Mono, Bold';font-variant-ligatures:normal;font-variant-caps:normal;font-variant-numeric:normal;font-feature-settings:normal;text-align:start;writing-mode:lr-tb;text-anchor:start;fill:url(#linearGradient978);fill-opacity:1;stroke-width:0.1866194"
       d="M 57.847558,6.8584733 V 6.0074838 h 1.433245 V 3.5963468 H 58.034178 V 2.7528221 h 2.142404 v 3.2546617 h 1.269019 v 0.8509895 z m 1.806486,-4.7924147 q -0.283663,0 -0.447889,-0.1418316 -0.164226,-0.1492964 -0.164226,-0.3956355 0,-0.246339 0.164226,-0.3881706 0.164226,-0.14929642 0.447889,-0.14929642 0.283664,0 0.44789,0.14929642 0.164226,0.1418316 0.164226,0.3881706 0,0.2463391 -0.164226,0.3956355 -0.164226,0.1418316 -0.44789,0.1418316 z"
       inkscape:connector-curvature="0" />
    <path
       id="path936"
       style="font-style:normal;font-variant:normal;font-weight:bold;font-stretch:normal;font-size:7.46482038px;font-family:'JetBrains Mono';-inkscape-font-specification:'JetBrains Mono, Bold';font-variant-ligatures:normal;font-variant-caps:normal;font-variant-numeric:normal;font-feature-settings:normal;text-align:start;writing-mode:lr-tb;text-anchor:start;fill:url(#linearGradient980);fill-opacity:1;stroke-width:0.1866194"
       d="M 62.330998,6.8584733 V 2.7528221 h 0.910708 V 3.5366282 H 63.49551 L 63.241706,3.753108 q 0,-0.5076078 0.291128,-0.7912709 0.298593,-0.2836632 0.813665,-0.2836632 0.604651,0 0.962962,0.4031003 0.365776,0.4031003 0.365776,1.0823989 V 6.8584733 H 64.742135 V 4.2607158 q 0,-0.373241 -0.194086,-0.5747912 -0.194085,-0.2015501 -0.544932,-0.2015501 -0.343381,0 -0.544931,0.209015 Q 63.2641,3.9024044 63.2641,4.2905751 v 2.5678982 z"
       inkscape:connector-curvature="0" />
    <path
       id="path938"
       style="font-style:normal;font-variant:normal;font-weight:bold;font-stretch:normal;font-size:7.46482038px;font-family:'JetBrains Mono';-inkscape-font-specification:'JetBrains Mono, Bold';font-variant-ligatures:normal;font-variant-caps:normal;font-variant-numeric:normal;font-feature-settings:normal;text-align:start;writing-mode:lr-tb;text-anchor:start;fill:url(#linearGradient982);fill-opacity:1;stroke-width:0.1866194"
       d="M 67.366838,8.202141 V 7.4257997 h 1.216766 q 0.313522,0 0.470283,-0.1567613 0.156762,-0.1492964 0.156762,-0.4329596 V 6.5300212 l 0.01493,-0.7688765 h -0.20155 l 0.20155,-0.2015501 q 0,0.5001429 -0.298592,0.7838061 -0.291128,0.2761983 -0.791271,0.2761983 -0.627045,0 -1.000286,-0.4254947 Q 66.769652,5.7686095 66.769652,5.0445219 V 4.2457862 q 0,-0.7166228 0.365777,-1.1421176 0.373241,-0.4254947 1.000286,-0.4254947 0.500143,0 0.791271,0.2836632 0.298592,0.2761983 0.298592,0.7763413 l -0.20155,-0.2015502 h 0.20155 l -0.02239,-0.7838061 h 0.933102 v 4.1056512 q 0,0.6195801 -0.410565,0.9778915 Q 69.31516,8.202141 68.598537,8.202141 Z m 1.082399,-2.3887426 q 0.358311,0 0.552397,-0.2090149 0.20155,-0.2164798 0.20155,-0.5971857 V 4.2905751 q 0,-0.3807059 -0.20155,-0.5897208 -0.194086,-0.2164798 -0.552397,-0.2164798 -0.358311,0 -0.552397,0.209015 -0.194085,0.2090149 -0.194085,0.5971856 v 0.7166227 q 0,0.3881707 0.194085,0.5971857 0.194086,0.2090149 0.552397,0.2090149 z"
       inkscape:connector-curvature="0" />
    <path
       id="path940"
       style="font-style:normal;font-variant:normal;font-weight:bold;font-stretch:normal;font-size:7.46482038px;font-family:'JetBrains Mono';-inkscape-font-specification:'JetBrains Mono, Bold';font-variant-ligatures:normal;font-variant-caps:normal;font-variant-numeric:normal;font-feature-settings:normal;text-align:start;writing-mode:lr-tb;text-anchor:start;fill:url(#linearGradient984);fill-opacity:1;stroke-width:0.1866194"
       d="M 76.953302,6.8584733 V 2.2750736 H 75.527521 V 1.4091544 h 3.792129 v 0.8659192 h -1.425781 v 4.5833997 z"
       inkscape:connector-curvature="0" />
    <path
       id="path942"
       style="font-style:normal;font-variant:normal;font-weight:bold;font-stretch:normal;font-size:7.46482038px;font-family:'JetBrains Mono';-inkscape-font-specification:'JetBrains Mono, Bold';font-variant-ligatures:normal;font-variant-caps:normal;font-variant-numeric:normal;font-feature-settings:normal;text-align:start;writing-mode:lr-tb;text-anchor:start;fill:url(#linearGradient986);fill-opacity:1;stroke-width:0.1866194"
       d="M 80.227441,6.8584733 V 6.0074838 h 1.433245 V 3.5963468 H 80.414061 V 2.7528221 h 2.142404 v 3.2546617 h 1.269019 v 0.8509895 z m 1.806486,-4.7924147 q -0.283663,0 -0.447889,-0.1418316 -0.164226,-0.1492964 -0.164226,-0.3956355 0,-0.246339 0.164226,-0.3881706 0.164226,-0.14929642 0.447889,-0.14929642 0.283663,0 0.447889,0.14929642 0.164226,0.1418316 0.164226,0.3881706 0,0.2463391 -0.164226,0.3956355 -0.164226,0.1418316 -0.447889,0.1418316 z"
       inkscape:connector-curvature="0" />
    <path
       id="path944"
       style="font-style:normal;font-variant:normal;font-weight:bold;font-stretch:normal;font-size:7.46482038px;font-family:'JetBrains Mono';-inkscape-font-specification:'JetBrains Mono, Bold';font-variant-ligatures:normal;font-variant-caps:normal;font-variant-numeric:normal;font-feature-settings:normal;text-align:start;writing-mode:lr-tb;text-anchor:start;fill:url(#linearGradient988);fill-opacity:1;stroke-width:0.1866194"
       d="M 84.52426,6.8584733 V 2.7528221 h 0.761412 v 0.5523967 h 0.156761 l -0.126902,0.1343668 q 0,-0.3433818 0.194085,-0.5523967 0.194086,-0.209015 0.500143,-0.209015 0.328452,0 0.507608,0.2687335 0.186621,0.2687336 0.186621,0.7240876 L 86.539761,3.3052188 h 0.253804 l -0.09704,0.1343668 q 0,-0.3433818 0.194085,-0.5523967 0.194085,-0.209015 0.515073,-0.209015 0.380705,0 0.60465,0.2836632 0.223945,0.2836631 0.223945,0.7688765 V 6.8584733 H 87.413145 V 3.7680377 q 0,-0.2015502 -0.08958,-0.3135225 -0.08958,-0.1194371 -0.261269,-0.1194371 -0.164226,0 -0.261269,0.1119723 -0.08958,0.1119723 -0.08958,0.3209873 V 6.8584733 H 86.039619 V 3.7680377 q 0,-0.209015 -0.08958,-0.3209873 -0.08958,-0.1119723 -0.261269,-0.1119723 -0.171691,0 -0.261269,0.1119723 -0.08211,0.1119723 -0.08211,0.3209873 v 3.0904356 z"
       inkscape:connector-curvature="0" />
    <path
       id="path946"
       style="font-style:normal;font-variant:normal;font-weight:bold;font-stretch:normal;font-size:7.46482038px;font-family:'JetBrains Mono';-inkscape-font-specification:'JetBrains Mono, Bold';font-variant-ligatures:normal;font-variant-caps:normal;font-variant-numeric:normal;font-feature-settings:normal;text-align:start;writing-mode:lr-tb;text-anchor:start;fill:url(#linearGradient990);fill-opacity:1;stroke-width:0.1866194"
       d="m 90.858975,6.9331215 q -0.522537,0 -0.910708,-0.2015501 Q 89.560097,6.5300212 89.343617,6.1717098 89.134602,5.8059336 89.134602,5.3207203 V 4.2905751 q 0,-0.4852133 0.209015,-0.8435247 0.21648,-0.3657762 0.60465,-0.5673264 0.388171,-0.2015501 0.910708,-0.2015501 0.515073,0 0.895779,0.2015501 0.38817,0.2015502 0.597185,0.5673264 0.21648,0.3583114 0.21648,0.8435247 v 0.7390172 h -2.530574 v 0.291128 q 0,0.4329596 0.209015,0.6569042 0.209015,0.2164798 0.61958,0.2164798 0.313523,0 0.507608,-0.1045075 0.194085,-0.1119723 0.246339,-0.3209873 H 92.53856 Q 92.434052,6.2986118 91.971234,6.619599 91.515879,6.9331215 90.858975,6.9331215 Z M 91.665176,4.5070549 V 4.2831103 q 0,-0.4254948 -0.20155,-0.6494394 -0.20155,-0.2314094 -0.604651,-0.2314094 -0.4031,0 -0.612115,0.2314094 -0.209015,0.2314094 -0.209015,0.6569042 v 0.1567612 l 1.694514,-0.01493 z"
       inkscape:connector-curvature="0" />
  </g>
  <g
     transform="translate(0,-288.27)"
     id="g50">
    <rect
       x="1.0583"
       y="289.06"
       width="1.5875"
       height="0.79374999"
       ry="0.39686999"
       id="rect4"
       style="fill:#fbc2b7" />
    <rect
       x="2.9103999"
       y="289.06"
       width="2.3812001"
       height="0.79376"
       ry="0.39686999"
       id="rect6"
       style="fill:#e7998a" />
    <rect
       x="1.3229001"
       y="290.12"
       width="1.5875"
       height="0.79374999"
       ry="0.39686999"
       id="rect8"
       style="fill:#f68656" />
    <rect
       x="1.8521"
       y="292.23999"
       width="1.3229001"
       height="0.79374999"
       ry="0.39098001"
       id="rect10"
       style="fill:#dc55a5" />
    <rect
       x="1.3229001"
       y="293.29999"
       width="2.1166999"
       height="0.79377002"
       ry="0.38852999"
       id="rect12"
       style="fill:#dc55a5" />
    <g
       id="g20"
       style="fill:#f68656">
      <rect
         x="0.79374999"
         y="295.41"
         width="1.5875"
         height="0.79374999"
         ry="0.39686999"
         id="rect14" />
      <rect
         x="1.3229001"
         y="294.35001"
         width="1.3229001"
         height="0.79378003"
         ry="0.39686999"
         id="rect16" />
      <rect
         x="1.3229001"
         y="291.17999"
         width="1.5875"
         height="0.79374999"
         ry="0.39686999"
         id="rect18" />
    </g>
    <g
       id="g34"
       style="fill:#7bc5d1">
      <rect
         x="2.6458001"
         y="295.41"
         width="2.3812001"
         height="0.79376"
         ry="0.39686999"
         id="rect22" />
      <rect
         x="4.2333002"
         y="294.35001"
         width="2.1166999"
         height="0.79376"
         ry="0.39686999"
         id="rect24" />
      <rect
         x="6.3499999"
         y="293.29999"
         width="0.79374999"
         height="0.79378003"
         ry="0.37915999"
         id="rect26" />
      <rect
         x="4.7624998"
         y="292.23999"
         width="2.3812001"
         height="0.79376"
         ry="0.39686999"
         id="rect28" />
      <rect
         x="4.7624998"
         y="291.17999"
         width="2.3812001"
         height="0.79376"
         ry="0.39686999"
         id="rect30" />
      <rect
         x="5.0271001"
         y="290.12"
         width="2.3812001"
         height="0.79376"
         ry="0.39686999"
         id="rect32" />
    </g>
    <g
       id="g44"
       style="fill:#cdccca">
      <rect
         x="3.4396"
         y="290.12"
         width="1.3229001"
         height="0.79372001"
         ry="0.39098001"
         id="rect36" />
      <rect
         x="3.175"
         y="291.17999"
         width="1.3229001"
         height="0.79372001"
         ry="0.39098001"
         id="rect38" />
      <rect
         x="3.4396"
         y="292.23999"
         width="1.0583"
         height="0.79376"
         ry="0.37915"
         id="rect40" />
      <rect
         x="2.9103999"
         y="294.35001"
         width="1.0583"
         height="0.79372001"
         ry="0.38505"
         id="rect42" />
    </g>
    <rect
       x="5.2916999"
       y="293.29999"
       width="0.79374999"
       height="0.79378003"
       ry="0.37915999"
       id="rect46"
       style="fill:#7bc5d1" />
    <rect
       x="3.7042"
       y="293.29999"
       width="1.3229001"
       height="0.79377002"
       ry="0.37915"
       id="rect48"
       style="fill:#cdccca" />
  </g>
  <g
     aria-label="Dinner Coding Time"
     style="font-style:normal;font-variant:normal;font-weight:bold;font-stretch:normal;font-size:7.46482038px;line-height:1.25;font-family:'JetBrains Mono';-inkscape-font-specification:'JetBrains Mono, Bold';font-variant-ligatures:normal;font-variant-caps:normal;font-variant-numeric:normal;font-feature-settings:normal;text-align:start;letter-spacing:0px;word-spacing:0px;writing-mode:lr-tb;text-anchor:start;fill:#1b1d35;fill-opacity:1;stroke:none;stroke-width:0.1866194"
     id="text870">
    <path
       d="M 8.6043523,6.8584733 V 1.4091544 h 1.6198657 q 0.552397,0 0.955497,0.209015 0.410565,0.209015 0.63451,0.5897208 0.223945,0.3807058 0.223945,0.9032433 v 2.0378959 q 0,0.5150726 -0.223945,0.9032433 -0.223945,0.3807058 -0.63451,0.5971856 -0.4031,0.209015 -0.955497,0.209015 z M 9.5374549,6.000019 h 0.6867631 q 0.403101,0 0.641975,-0.2239447 0.238874,-0.2314094 0.238874,-0.6270449 V 3.1111335 q 0,-0.3881707 -0.238874,-0.6121153 Q 10.627319,2.2676088 10.224218,2.2676088 H 9.5374549 Z"
       style="font-style:normal;font-variant:normal;font-weight:bold;font-stretch:normal;font-size:7.46482038px;font-family:'JetBrains Mono';-inkscape-font-specification:'JetBrains Mono, Bold';font-variant-ligatures:normal;font-variant-caps:normal;font-variant-numeric:normal;font-feature-settings:normal;text-align:start;writing-mode:lr-tb;text-anchor:start;fill:#1b1d35;fill-opacity:1;stroke-width:0.1866194"
       id="path852" />
    <path
       d="M 13.087794,6.8584733 V 6.0074838 h 1.433245 V 3.5963468 H 13.274414 V 2.7528221 h 2.142404 v 3.2546617 h 1.269019 V 6.8584733 Z M 14.89428,2.0660586 q -0.283663,0 -0.447889,-0.1418316 -0.164226,-0.1492964 -0.164226,-0.3956355 0,-0.246339 0.164226,-0.3881706 0.164226,-0.14929642 0.447889,-0.14929642 0.283663,0 0.447889,0.14929642 0.164226,0.1418316 0.164226,0.3881706 0,0.2463391 -0.164226,0.3956355 -0.164226,0.1418316 -0.447889,0.1418316 z"
       style="font-style:normal;font-variant:normal;font-weight:bold;font-stretch:normal;font-size:7.46482038px;font-family:'JetBrains Mono';-inkscape-font-specification:'JetBrains Mono, Bold';font-variant-ligatures:normal;font-variant-caps:normal;font-variant-numeric:normal;font-feature-settings:normal;text-align:start;writing-mode:lr-tb;text-anchor:start;fill:#1b1d35;fill-opacity:1;stroke-width:0.1866194"
       id="path854" />
    <path
       d="M 17.571235,6.8584733 V 2.7528221 h 0.910708 v 0.7838061 h 0.253804 L 18.481943,3.753108 q 0,-0.5076078 0.291128,-0.7912709 0.298593,-0.2836632 0.813665,-0.2836632 0.604651,0 0.962962,0.4031003 0.365776,0.4031003 0.365776,1.0823989 V 6.8584733 H 19.982372 V 4.2607158 q 0,-0.373241 -0.194085,-0.5747912 -0.194086,-0.2015501 -0.544932,-0.2015501 -0.343382,0 -0.544932,0.209015 -0.194086,0.2090149 -0.194086,0.5971856 v 2.5678982 z"
       style="font-style:normal;font-variant:normal;font-weight:bold;font-stretch:normal;font-size:7.46482038px;font-family:'JetBrains Mono';-inkscape-font-specification:'JetBrains Mono, Bold';font-variant-ligatures:normal;font-variant-caps:normal;font-variant-numeric:normal;font-feature-settings:normal;text-align:start;writing-mode:lr-tb;text-anchor:start;fill:#1b1d35;fill-opacity:1;stroke-width:0.1866194"
       id="path856" />
    <path
       d="M 22.047211,6.8584733 V 2.7528221 h 0.910708 v 0.7838061 h 0.253804 L 22.957919,3.753108 q 0,-0.5076078 0.291128,-0.7912709 0.298593,-0.2836632 0.813665,-0.2836632 0.604651,0 0.962962,0.4031003 0.365776,0.4031003 0.365776,1.0823989 V 6.8584733 H 24.458348 V 4.2607158 q 0,-0.373241 -0.194085,-0.5747912 -0.194086,-0.2015501 -0.544932,-0.2015501 -0.343382,0 -0.544932,0.209015 -0.194086,0.2090149 -0.194086,0.5971856 v 2.5678982 z"
       style="font-style:normal;font-variant:normal;font-weight:bold;font-stretch:normal;font-size:7.46482038px;font-family:'JetBrains Mono';-inkscape-font-specification:'JetBrains Mono, Bold';font-variant-ligatures:normal;font-variant-caps:normal;font-variant-numeric:normal;font-feature-settings:normal;text-align:start;writing-mode:lr-tb;text-anchor:start;fill:#1b1d35;fill-opacity:1;stroke-width:0.1866194"
       id="path858" />
    <path
       d="m 28.195308,6.9331215 q -0.522538,0 -0.910708,-0.2015501 Q 26.896429,6.5300212 26.679949,6.1717098 26.470934,5.8059336 26.470934,5.3207203 V 4.2905751 q 0,-0.4852133 0.209015,-0.8435247 0.21648,-0.3657762 0.604651,-0.5673264 0.38817,-0.2015501 0.910708,-0.2015501 0.515072,0 0.895778,0.2015501 0.388171,0.2015502 0.597186,0.5673264 0.216479,0.3583114 0.216479,0.8435247 v 0.7390172 h -2.530574 v 0.291128 q 0,0.4329596 0.209015,0.6569042 0.209015,0.2164798 0.61958,0.2164798 0.313523,0 0.507608,-0.1045075 0.194086,-0.1119723 0.246339,-0.3209873 h 0.918173 Q 29.770385,6.2986118 29.307566,6.619599 28.852212,6.9331215 28.195308,6.9331215 Z m 0.8062,-2.4260666 V 4.2831103 q 0,-0.4254948 -0.20155,-0.6494394 -0.20155,-0.2314094 -0.60465,-0.2314094 -0.403101,0 -0.612116,0.2314094 -0.209015,0.2314094 -0.209015,0.6569042 v 0.1567612 l 1.694515,-0.01493 z"
       style="font-style:normal;font-variant:normal;font-weight:bold;font-stretch:normal;font-size:7.46482038px;font-family:'JetBrains Mono';-inkscape-font-specification:'JetBrains Mono, Bold';font-variant-ligatures:normal;font-variant-caps:normal;font-variant-numeric:normal;font-feature-settings:normal;text-align:start;writing-mode:lr-tb;text-anchor:start;fill:#1b1d35;fill-opacity:1;stroke-width:0.1866194"
       id="path860" />
    <path
       d="m 32.671285,6.9331215 q -0.522538,0 -0.910709,-0.2015501 Q 31.372406,6.5300212 31.155926,6.1717098 30.946911,5.8059336 30.946911,5.3207203 V 4.2905751 q 0,-0.4852133 0.209015,-0.8435247 0.21648,-0.3657762 0.60465,-0.5673264 0.388171,-0.2015501 0.910709,-0.2015501 0.515072,0 0.895778,0.2015501 0.388171,0.2015502 0.597186,0.5673264 0.216479,0.3583114 0.216479,0.8435247 v 0.7390172 h -2.530574 v 0.291128 q 0,0.4329596 0.209015,0.6569042 0.209015,0.2164798 0.61958,0.2164798 0.313523,0 0.507608,-0.1045075 0.194085,-0.1119723 0.246339,-0.3209873 h 0.918173 Q 34.246362,6.2986118 33.783543,6.619599 33.328189,6.9331215 32.671285,6.9331215 Z m 0.8062,-2.4260666 V 4.2831103 q 0,-0.4254948 -0.20155,-0.6494394 -0.20155,-0.2314094 -0.60465,-0.2314094 -0.403101,0 -0.612116,0.2314094 -0.209015,0.2314094 -0.209015,0.6569042 v 0.1567612 l 1.694515,-0.01493 z"
       style="font-style:normal;font-variant:normal;font-weight:bold;font-stretch:normal;font-size:7.46482038px;font-family:'JetBrains Mono';-inkscape-font-specification:'JetBrains Mono, Bold';font-variant-ligatures:normal;font-variant-caps:normal;font-variant-numeric:normal;font-feature-settings:normal;text-align:start;writing-mode:lr-tb;text-anchor:start;fill:#1b1d35;fill-opacity:1;stroke-width:0.1866194"
       id="path862" />
    <path
       d="M 35.47514,6.8584733 V 2.7528221 h 0.910708 v 0.7838061 h 0.253804 L 36.385848,3.753108 q 0,-0.5076078 0.291128,-0.7912709 0.298593,-0.2836632 0.813665,-0.2836632 0.604651,0 0.962962,0.4031003 0.365776,0.4031003 0.365776,1.0823989 V 6.8584733 H 37.886277 V 4.2607158 q 0,-0.373241 -0.194086,-0.5747912 -0.194085,-0.2015501 -0.544931,-0.2015501 -0.343382,0 -0.544932,0.209015 -0.194086,0.2090149 -0.194086,0.5971856 v 2.5678982 z"
       style="font-style:normal;font-variant:normal;font-weight:bold;font-stretch:normal;font-size:7.46482038px;font-family:'JetBrains Mono';-inkscape-font-specification:'JetBrains Mono, Bold';font-variant-ligatures:normal;font-variant-caps:normal;font-variant-numeric:normal;font-feature-settings:normal;text-align:start;writing-mode:lr-tb;text-anchor:start;fill:#1b1d35;fill-opacity:1;stroke-width:0.1866194"
       id="path864" />
    <path
       d="m 46.121608,6.9331215 q -0.522537,0 -0.918173,-0.1940853 Q 44.815264,6.537486 44.598785,6.1791746 44.38977,5.8133984 44.38977,5.3207203 V 2.9469074 q 0,-0.5001429 0.209015,-0.8584543 0.216479,-0.3583114 0.60465,-0.5523967 0.395636,-0.2015502 0.918173,-0.2015502 0.530002,0 0.910708,0.2015502 0.388171,0.1940853 0.60465,0.5523967 0.21648,0.3583114 0.21648,0.8584543 h -0.940567 q 0,-0.3881706 -0.209015,-0.5897208 -0.209015,-0.2015501 -0.582256,-0.2015501 -0.380706,0 -0.589721,0.2015501 -0.209015,0.2015502 -0.209015,0.582256 v 2.3812777 q 0,0.3807058 0.209015,0.5897208 0.209015,0.2015502 0.589721,0.2015502 0.373241,0 0.582256,-0.2015502 0.209015,-0.209015 0.209015,-0.5897208 h 0.940567 q 0,0.4852133 -0.21648,0.8509895 -0.216479,0.3657762 -0.60465,0.5673264 -0.380706,0.1940853 -0.910708,0.1940853 z"
       style="font-style:normal;font-variant:normal;font-weight:bold;font-stretch:normal;font-size:7.46482038px;font-family:'JetBrains Mono';-inkscape-font-specification:'JetBrains Mono, Bold';font-variant-ligatures:normal;font-variant-caps:normal;font-variant-numeric:normal;font-feature-settings:normal;text-align:start;writing-mode:lr-tb;text-anchor:start;fill:#1b1d35;fill-opacity:1;stroke-width:0.1866194"
       id="path866" />
    <path
       d="m 50.567724,6.9256567 q -0.522538,0 -0.910708,-0.1940853 Q 49.27631,6.5300212 49.05983,6.1717098 48.850815,5.8059336 48.850815,5.3132555 V 4.2980399 q 0,-0.4926781 0.209015,-0.8509895 0.21648,-0.3657762 0.597186,-0.5598615 0.38817,-0.2015502 0.910708,-0.2015502 0.530002,0 0.910708,0.2015502 0.380706,0.1940853 0.589721,0.5598615 0.216479,0.3583114 0.216479,0.8435247 v 1.0226804 q 0,0.4926781 -0.216479,0.8584543 -0.209015,0.3583114 -0.589721,0.5598616 -0.380706,0.1940853 -0.910708,0.1940853 z m 0,-0.8136654 q 0.373241,0 0.574791,-0.2015502 0.209015,-0.209015 0.209015,-0.5971856 V 4.2980399 q 0,-0.3956355 -0.209015,-0.5971856 -0.20155,-0.2015502 -0.574791,-0.2015502 -0.365776,0 -0.574791,0.2015502 -0.209015,0.2015501 -0.209015,0.5971856 v 1.0152156 q 0,0.3881706 0.209015,0.5971856 0.209015,0.2015502 0.574791,0.2015502 z"
       style="font-style:normal;font-variant:normal;font-weight:bold;font-stretch:normal;font-size:7.46482038px;font-family:'JetBrains Mono';-inkscape-font-specification:'JetBrains Mono, Bold';font-variant-ligatures:normal;font-variant-caps:normal;font-variant-numeric:normal;font-feature-settings:normal;text-align:start;writing-mode:lr-tb;text-anchor:start;fill:#1b1d35;fill-opacity:1;stroke-width:0.1866194"
       id="path868" />
    <path
       d="m 54.692856,6.9331215 q -0.612115,0 -0.992821,-0.4254948 Q 53.326794,6.082132 53.326794,5.3655092 V 4.253251 q 0,-0.7240876 0.373241,-1.1495824 0.373241,-0.4254947 0.992821,-0.4254947 0.507608,0 0.806201,0.291128 0.298592,0.2836632 0.298592,0.7838061 L 55.588634,3.5366282 h 0.21648 L 55.775255,2.5587368 V 1.4091544 h 0.933103 V 6.8584733 H 55.797649 V 6.0746672 h -0.209015 l 0.209015,-0.2164798 q 0,0.5001429 -0.298592,0.7912709 -0.298593,0.2836632 -0.806201,0.2836632 z m 0.328452,-0.8062006 q 0.358311,0 0.552397,-0.209015 0.20155,-0.2164798 0.20155,-0.5971856 V 4.2905751 q 0,-0.3807059 -0.20155,-0.5897208 -0.194086,-0.2164798 -0.552397,-0.2164798 -0.358311,0 -0.559861,0.209015 -0.201551,0.2090149 -0.201551,0.5971856 v 1.0301452 q 0,0.3881707 0.201551,0.5971856 0.20155,0.209015 0.559861,0.209015 z"
       style="font-style:normal;font-variant:normal;font-weight:bold;font-stretch:normal;font-size:7.46482038px;font-family:'JetBrains Mono';-inkscape-font-specification:'JetBrains Mono, Bold';font-variant-ligatures:normal;font-variant-caps:normal;font-variant-numeric:normal;font-feature-settings:normal;text-align:start;writing-mode:lr-tb;text-anchor:start;fill:#1b1d35;fill-opacity:1;stroke-width:0.1866194"
       id="path870" />
    <path
       d="M 57.847558,6.8584733 V 6.0074838 h 1.433245 V 3.5963468 H 58.034178 V 2.7528221 h 2.142404 v 3.2546617 h 1.269019 v 0.8509895 z m 1.806486,-4.7924147 q -0.283663,0 -0.447889,-0.1418316 -0.164226,-0.1492964 -0.164226,-0.3956355 0,-0.246339 0.164226,-0.3881706 0.164226,-0.14929642 0.447889,-0.14929642 0.283664,0 0.44789,0.14929642 0.164226,0.1418316 0.164226,0.3881706 0,0.2463391 -0.164226,0.3956355 -0.164226,0.1418316 -0.44789,0.1418316 z"
       style="font-style:normal;font-variant:normal;font-weight:bold;font-stretch:normal;font-size:7.46482038px;font-family:'JetBrains Mono';-inkscape-font-specification:'JetBrains Mono, Bold';font-variant-ligatures:normal;font-variant-caps:normal;font-variant-numeric:normal;font-feature-settings:normal;text-align:start;writing-mode:lr-tb;text-anchor:start;fill:#1b1d35;fill-opacity:1;stroke-width:0.1866194"
       id="path872" />
    <path
       d="M 62.330998,6.8584733 V 2.7528221 h 0.910708 V 3.5366282 H 63.49551 L 63.241706,3.753108 q 0,-0.5076078 0.291128,-0.7912709 0.298593,-0.2836632 0.813665,-0.2836632 0.604651,0 0.962962,0.4031003 0.365776,0.4031003 0.365776,1.0823989 V 6.8584733 H 64.742135 V 4.2607158 q 0,-0.373241 -0.194086,-0.5747912 -0.194085,-0.2015501 -0.544932,-0.2015501 -0.343381,0 -0.544931,0.209015 Q 63.2641,3.9024044 63.2641,4.2905751 v 2.5678982 z"
       style="font-style:normal;font-variant:normal;font-weight:bold;font-stretch:normal;font-size:7.46482038px;font-family:'JetBrains Mono';-inkscape-font-specification:'JetBrains Mono, Bold';font-variant-ligatures:normal;font-variant-caps:normal;font-variant-numeric:normal;font-feature-settings:normal;text-align:start;writing-mode:lr-tb;text-anchor:start;fill:#1b1d35;fill-opacity:1;stroke-width:0.1866194"
       id="path874" />
    <path
       d="M 67.366838,8.202141 V 7.4257997 h 1.216766 q 0.313522,0 0.470283,-0.1567613 0.156762,-0.1492964 0.156762,-0.4329596 V 6.5300212 l 0.01493,-0.7688765 h -0.20155 l 0.20155,-0.2015501 q 0,0.5001429 -0.298592,0.7838061 -0.291128,0.2761983 -0.791271,0.2761983 -0.627045,0 -1.000286,-0.4254947 Q 66.769652,5.7686095 66.769652,5.0445219 V 4.2457862 q 0,-0.7166228 0.365777,-1.1421176 0.373241,-0.4254947 1.000286,-0.4254947 0.500143,0 0.791271,0.2836632 0.298592,0.2761983 0.298592,0.7763413 l -0.20155,-0.2015502 h 0.20155 l -0.02239,-0.7838061 h 0.933102 v 4.1056512 q 0,0.6195801 -0.410565,0.9778915 -0.410565,0.3657762 -1.127188,0.3657762 z m 1.082399,-2.3887426 q 0.358311,0 0.552397,-0.2090149 0.20155,-0.2164798 0.20155,-0.5971857 V 4.2905751 q 0,-0.3807059 -0.20155,-0.5897208 -0.194086,-0.2164798 -0.552397,-0.2164798 -0.358311,0 -0.552397,0.209015 -0.194085,0.2090149 -0.194085,0.5971856 v 0.7166227 q 0,0.3881707 0.194085,0.5971857 0.194086,0.2090149 0.552397,0.2090149 z"
       style="font-style:normal;font-variant:normal;font-weight:bold;font-stretch:normal;font-size:7.46482038px;font-family:'JetBrains Mono';-inkscape-font-specification:'JetBrains Mono, Bold';font-variant-ligatures:normal;font-variant-caps:normal;font-variant-numeric:normal;font-feature-settings:normal;text-align:start;writing-mode:lr-tb;text-anchor:start;fill:#1b1d35;fill-opacity:1;stroke-width:0.1866194"
       id="path876" />
    <path
       d="M 76.953302,6.8584733 V 2.2750736 H 75.527521 V 1.4091544 h 3.792129 v 0.8659192 h -1.425781 v 4.5833997 z"
       style="font-style:normal;font-variant:normal;font-weight:bold;font-stretch:normal;font-size:7.46482038px;font-family:'JetBrains Mono';-inkscape-font-specification:'JetBrains Mono, Bold';font-variant-ligatures:normal;font-variant-caps:normal;font-variant-numeric:normal;font-feature-settings:normal;text-align:start;writing-mode:lr-tb;text-anchor:start;fill:#1b1d35;fill-opacity:1;stroke-width:0.1866194"
       id="path878" />
    <path
       d="M 80.227441,6.8584733 V 6.0074838 h 1.433245 V 3.5963468 H 80.414061 V 2.7528221 h 2.142404 v 3.2546617 h 1.269019 v 0.8509895 z m 1.806486,-4.7924147 q -0.283663,0 -0.447889,-0.1418316 -0.164226,-0.1492964 -0.164226,-0.3956355 0,-0.246339 0.164226,-0.3881706 0.164226,-0.14929642 0.447889,-0.14929642 0.283663,0 0.447889,0.14929642 0.164226,0.1418316 0.164226,0.3881706 0,0.2463391 -0.164226,0.3956355 -0.164226,0.1418316 -0.447889,0.1418316 z"
       style="font-style:normal;font-variant:normal;font-weight:bold;font-stretch:normal;font-size:7.46482038px;font-family:'JetBrains Mono';-inkscape-font-specification:'JetBrains Mono, Bold';font-variant-ligatures:normal;font-variant-caps:normal;font-variant-numeric:normal;font-feature-settings:normal;text-align:start;writing-mode:lr-tb;text-anchor:start;fill:#1b1d35;fill-opacity:1;stroke-width:0.1866194"
       id="path880" />
    <path
       d="M 84.52426,6.8584733 V 2.7528221 h 0.761412 v 0.5523967 h 0.156761 l -0.126902,0.1343668 q 0,-0.3433818 0.194085,-0.5523967 0.194086,-0.209015 0.500143,-0.209015 0.328452,0 0.507608,0.2687335 0.186621,0.2687336 0.186621,0.7240876 L 86.539761,3.3052188 h 0.253804 l -0.09704,0.1343668 q 0,-0.3433818 0.194085,-0.5523967 0.194085,-0.209015 0.515073,-0.209015 0.380705,0 0.60465,0.2836632 0.223945,0.2836631 0.223945,0.7688765 V 6.8584733 H 87.413145 V 3.7680377 q 0,-0.2015502 -0.08958,-0.3135225 -0.08958,-0.1194371 -0.261269,-0.1194371 -0.164226,0 -0.261269,0.1119723 -0.08958,0.1119723 -0.08958,0.3209873 V 6.8584733 H 86.039619 V 3.7680377 q 0,-0.209015 -0.08958,-0.3209873 -0.08958,-0.1119723 -0.261269,-0.1119723 -0.171691,0 -0.261269,0.1119723 -0.08211,0.1119723 -0.08211,0.3209873 v 3.0904356 z"
       style="font-style:normal;font-variant:normal;font-weight:bold;font-stretch:normal;font-size:7.46482038px;font-family:'JetBrains Mono';-inkscape-font-specification:'JetBrains Mono, Bold';font-variant-ligatures:normal;font-variant-caps:normal;font-variant-numeric:normal;font-feature-settings:normal;text-align:start;writing-mode:lr-tb;text-anchor:start;fill:#1b1d35;fill-opacity:1;stroke-width:0.1866194"
       id="path882" />
    <path
       d="m 90.858975,6.9331215 q -0.522537,0 -0.910708,-0.2015501 Q 89.560097,6.5300212 89.343617,6.1717098 89.134602,5.8059336 89.134602,5.3207203 V 4.2905751 q 0,-0.4852133 0.209015,-0.8435247 0.21648,-0.3657762 0.60465,-0.5673264 0.388171,-0.2015501 0.910708,-0.2015501 0.515073,0 0.895779,0.2015501 0.38817,0.2015502 0.597185,0.5673264 0.21648,0.3583114 0.21648,0.8435247 v 0.7390172 h -2.530574 v 0.291128 q 0,0.4329596 0.209015,0.6569042 0.209015,0.2164798 0.61958,0.2164798 0.313523,0 0.507608,-0.1045075 0.194085,-0.1119723 0.246339,-0.3209873 H 92.53856 Q 92.434052,6.2986118 91.971234,6.619599 91.515879,6.9331215 90.858975,6.9331215 Z M 91.665176,4.5070549 V 4.2831103 q 0,-0.4254948 -0.20155,-0.6494394 -0.20155,-0.2314094 -0.604651,-0.2314094 -0.4031,0 -0.612115,0.2314094 -0.209015,0.2314094 -0.209015,0.6569042 v 0.1567612 l 1.694514,-0.01493 z"
       style="font-style:normal;font-variant:normal;font-weight:bold;font-stretch:normal;font-size:7.46482038px;font-family:'JetBrains Mono';-inkscape-font-specification:'JetBrains Mono, Bold';font-variant-ligatures:normal;font-variant-caps:normal;font-variant-numeric:normal;font-feature-settings:normal;text-align:start;writing-mode:lr-tb;text-anchor:start;fill:#1b1d35;fill-opacity:1;stroke-width:0.1866194"
       id="path884" />
  </g>
</svg>
